<?xml version="1.0" encoding="UTF-8" standalone="no"?>
<svg
   xmlns:dc="http://purl.org/dc/elements/1.1/"
   xmlns:cc="http://creativecommons.org/ns#"
   xmlns:rdf="http://www.w3.org/1999/02/22-rdf-syntax-ns#"
   xmlns:svg="http://www.w3.org/2000/svg"
   xmlns="http://www.w3.org/2000/svg"
   id="svg47"
   xml:space="preserve"
   viewBox="0 0 1024 768"
   y="0px"
   x="0px"
   version="1.1"><metadata
     id="metadata53"><rdf:RDF><cc:Work
         rdf:about=""><dc:format>image/svg+xml</dc:format><dc:type
           rdf:resource="http://purl.org/dc/dcmitype/StillImage" /></cc:Work></rdf:RDF></metadata><defs
     id="defs51" /><rect
     id="rect2"
     height="768"
     width="1024"
     fill="#e3ecf2" /><g
     style="fill:#434647"
     id="logo-group"><path
       style="stroke-width:1.14080226"
       d="m 276.84389,269.74676 c -33.72055,0.005 -61.75219,0.0317 -62.29323,0.059 -0.54042,0.0273 -1.36816,0.0825 -1.83943,0.12242 -0.47064,0.04 -1.32693,0.12813 -1.90286,0.196 -0.5753,0.0679 -1.51721,0.19662 -2.09315,0.28542 -0.57529,0.0888 -1.54575,0.26133 -2.15657,0.38311 -0.61018,0.12179 -1.58064,0.33427 -2.15657,0.47255 -0.57593,0.13827 -1.59396,0.40848 -2.26313,0.5994 -0.66918,0.19155 -1.76268,0.53407 -2.43059,0.76177 -0.66727,0.22771 -1.74682,0.62351 -2.39887,0.87976 -0.65141,0.25689 -1.62694,0.66029 -2.16799,0.89815 -0.54041,0.23722 -1.63963,0.76368 -2.442,1.17026 -0.80237,0.40657 -1.9295,1.01105 -2.50543,1.34341 -0.5753,0.33237 -1.332,0.78335 -1.68086,1.00281 -0.34885,0.21883 -1.05291,0.67678 -1.56415,1.01803 -0.51123,0.34061 -1.25335,0.85565 -1.64914,1.14425 -0.3958,0.2886 -1.03325,0.76876 -1.417,1.06687 -0.38374,0.29812 -1.04022,0.82648 -1.45885,1.1747 -0.41863,0.34759 -1.06116,0.90322 -1.42715,1.23432 -0.36598,0.3311 -1.02247,0.94572 -1.45886,1.36562 -0.43575,0.42053 -1.16391,1.15059 -1.61742,1.62314 -0.45352,0.47254 -1.14997,1.22861 -1.54703,1.68085 -0.3977,0.45288 -1.09985,1.29331 -1.56034,1.86924 -0.46113,0.5753 -1.11952,1.43159 -1.4633,1.90286 -0.34378,0.47064 -0.95714,1.35547 -1.36308,1.96629 -0.40594,0.61018 -1.00154,1.54829 -1.32249,2.08363 -0.32158,0.53534 -0.7992,1.36308 -1.06179,1.83943 -0.2626,0.47635 -0.77129,1.4652 -1.13093,2.1978 -0.35901,0.7326 -0.82711,1.7335 -1.03896,2.22444 -0.21249,0.49094 -0.56959,1.36181 -0.79413,1.93457 -0.22454,0.5734 -0.59623,1.59333 -0.82584,2.26758 -0.22961,0.67424 -0.57403,1.77283 -0.76558,2.442 -0.19092,0.66917 -0.46113,1.6872 -0.60004,2.26313 -0.13891,0.5753 -0.35139,1.54576 -0.47254,2.15657 -0.12115,0.61019 -0.29368,1.58064 -0.38248,2.15658 -0.0888,0.57529 -0.21756,1.51721 -0.28606,2.09314 -0.0685,0.5753 -0.1554,1.41763 -0.19282,1.87114 -0.0374,0.45352 -0.0958,1.38085 -0.13003,2.06143 -0.04,0.78842 -0.0622,23.38994 -0.0622,62.35033 0,38.96038 0.0222,61.5619 0.0622,62.35032 0.0342,0.67995 0.0926,1.60791 0.13003,2.06143 0.0374,0.45351 0.12432,1.29521 0.19282,1.87114 0.0685,0.5753 0.19726,1.51721 0.28606,2.09315 0.0888,0.57529 0.26133,1.54575 0.38248,2.15657 0.12115,0.61018 0.33363,1.58064 0.47254,2.15657 0.13891,0.57593 0.40912,1.59396 0.60004,2.26314 0.19155,0.66917 0.53533,1.76775 0.76431,2.442 0.22898,0.67425 0.65458,1.82484 0.94572,2.55744 0.29114,0.7326 0.77573,1.87431 1.07702,2.53714 0.30128,0.66283 0.80744,1.70432 1.12522,2.31514 0.31715,0.61019 0.8398,1.56669 1.16075,2.12486 0.32158,0.55817 0.76368,1.30029 0.98314,1.64915 0.21883,0.34885 0.67678,1.05291 1.01803,1.56415 0.34061,0.51123 0.85565,1.25334 1.14425,1.64914 0.2886,0.39579 0.76875,1.03325 1.06687,1.417 0.29811,0.38374 0.82521,1.03769 1.17089,1.45378 0.34632,0.41545 0.89878,1.05735 1.22798,1.42714 0.32919,0.36915 1.16011,1.23876 1.84577,1.93204 0.68566,0.6939 1.65993,1.63646 2.16609,2.09505 0.50616,0.45858 1.26223,1.11888 1.68086,1.46709 0.41863,0.34823 1.07511,0.87722 1.45885,1.17534 0.38375,0.29811 1.01486,0.7732 1.40241,1.05608 0.38755,0.2829 1.12966,0.79794 1.64914,1.14426 0.51949,0.34696 1.28697,0.8436 1.7056,1.10429 0.41863,0.26132 1.18929,0.71801 1.71257,1.0155 0.52329,0.29747 1.42271,0.78587 1.998,1.08525 0.57594,0.29939 1.58889,0.79097 2.25172,1.09288 0.66283,0.30129 1.80454,0.78525 2.53714,1.07575 0.7326,0.29051 1.84578,0.70406 2.47372,0.91845 0.62794,0.21438 1.67515,0.54485 2.32719,0.73323 0.65205,0.18902 1.70814,0.47128 2.34686,0.62794 0.63873,0.15604 1.6612,0.38312 2.27138,0.50426 0.61082,0.12115 1.58128,0.29304 2.15657,0.38248 0.57594,0.0888 1.40368,0.2055 1.83943,0.25879 0.43639,0.0533 1.26414,0.13954 1.83943,0.19091 0.57594,0.0513 1.62885,0.12242 2.34052,0.15795 0.85946,0.0431 21.78773,0.0647 62.35666,0.0647 40.33996,0 61.50229,-0.0216 62.35667,-0.0641 0.71167,-0.0355 1.79376,-0.10849 2.40394,-0.16175 0.61082,-0.054 1.63837,-0.16808 2.28343,-0.25434 0.64571,-0.0862 1.67325,-0.24293 2.28343,-0.34823 0.61082,-0.1053 1.68339,-0.31841 2.38428,-0.47381 0.70089,-0.1554 1.85466,-0.44145 2.56379,-0.63555 0.70976,-0.19472 1.86353,-0.54041 2.56378,-0.76939 0.70025,-0.22835 1.75824,-0.60131 2.3513,-0.82837 0.59306,-0.22708 1.57811,-0.62605 2.18829,-0.88611 0.61082,-0.26006 1.7094,-0.76811 2.442,-1.12839 0.7326,-0.36028 1.7316,-0.87532 2.22,-1.14425 0.4884,-0.26894 1.31614,-0.74656 1.83943,-1.06116 0.52329,-0.31397 1.45125,-0.90386 2.06143,-1.31044 0.61082,-0.40657 1.49565,-1.02056 1.96629,-1.36434 0.47127,-0.34379 1.32756,-1.00217 1.90286,-1.46331 0.57593,-0.46048 1.41699,-1.16264 1.86923,-1.56034 0.45225,-0.39706 1.22291,-1.1081 1.71258,-1.57938 0.48966,-0.47126 1.23242,-1.21338 1.65168,-1.64914 0.41863,-0.43575 1.00598,-1.06306 1.30536,-1.39479 0.29875,-0.33173 0.8417,-0.95968 1.20578,-1.39543 0.36471,-0.43639 0.90639,-1.10683 1.20388,-1.49057 0.29747,-0.38375 0.77762,-1.0212 1.06622,-1.41699 0.2886,-0.3958 0.80428,-1.13792 1.14489,-1.64915 0.34125,-0.51124 0.83282,-1.27238 1.09352,-1.69101 0.26068,-0.41863 0.72625,-1.20387 1.03515,-1.74428 0.30889,-0.54105 0.86516,-1.58255 1.23559,-2.31515 0.37106,-0.7326 0.90703,-1.86036 1.19119,-2.50543 0.28415,-0.64507 0.70406,-1.65485 0.93367,-2.24347 0.22961,-0.58862 0.6013,-1.61108 0.82648,-2.27201 0.22579,-0.66093 0.5664,-1.74936 0.75797,-2.41853 0.19091,-0.66917 0.46112,-1.6872 0.5994,-2.26314 0.13826,-0.57593 0.35075,-1.54639 0.47254,-2.15657 0.12178,-0.61082 0.29367,-1.58128 0.38311,-2.15657 0.0888,-0.57594 0.2055,-1.40368 0.25879,-1.83943 0.0533,-0.43639 0.13954,-1.26414 0.19091,-1.83943 0.0513,-0.57594 0.12242,-1.62885 0.15794,-2.34052 0.0431,-0.85945 0.0647,-21.78772 0.0647,-62.35666 0,-40.56894 -0.0216,-61.49721 -0.0647,-62.35667 -0.0355,-0.71166 -0.10655,-1.76521 -0.15794,-2.34051 -0.0513,-0.57593 -0.13764,-1.40368 -0.19091,-1.83943 -0.0533,-0.43639 -0.16999,-1.26413 -0.25879,-1.83943 -0.0894,-0.57593 -0.26133,-1.54639 -0.38311,-2.15657 -0.12179,-0.61082 -0.33428,-1.58128 -0.47254,-2.15658 -0.13828,-0.57593 -0.40849,-1.59396 -0.5994,-2.26313 -0.19157,-0.66917 -0.53535,-1.76775 -0.76432,-2.442 -0.22898,-0.67425 -0.65459,-1.82484 -0.94572,-2.55744 -0.29114,-0.7326 -0.77636,-1.87432 -1.07765,-2.53715 -0.30129,-0.66282 -0.79223,-1.67641 -1.09097,-2.25171 -0.29939,-0.57593 -0.78779,-1.47472 -1.08527,-1.998 -0.29811,-0.52329 -0.75544,-1.29395 -1.01612,-1.71257 -0.26006,-0.41863 -0.75227,-1.17978 -1.09352,-1.69101 -0.34061,-0.51124 -0.85629,-1.25335 -1.14489,-1.64915 -0.2886,-0.39579 -0.76875,-1.03325 -1.06686,-1.41699 -0.29812,-0.38374 -0.82711,-1.04023 -1.17534,-1.45886 -0.34822,-0.41863 -0.91464,-1.07511 -1.25968,-1.45886 -0.34442,-0.38374 -1.14489,-1.22353 -1.77791,-1.86607 -0.63302,-0.64316 -1.52229,-1.51023 -1.9758,-1.92823 -0.45351,-0.41736 -1.25906,-1.12205 -1.78995,-1.56605 -0.5309,-0.444 -1.37323,-1.12015 -1.87115,-1.50326 -0.49791,-0.38305 -1.3339,-0.99704 -1.85719,-1.36365 -0.52329,-0.36726 -1.42207,-0.96792 -1.998,-1.33454 -0.5753,-0.36725 -1.52102,-0.93938 -2.10075,-1.27175 -0.57975,-0.33236 -1.57875,-0.87658 -2.22,-1.20894 -0.64127,-0.33237 -1.66818,-0.83155 -2.28217,-1.11001 -0.61399,-0.27845 -1.69862,-0.73957 -2.41029,-1.025 -0.71166,-0.28543 -2.00751,-0.75671 -2.87965,-1.04784 -0.87215,-0.29114 -2.16862,-0.6882 -2.8803,-0.88229 -0.7123,-0.1941 -1.86797,-0.48016 -2.56886,-0.63556 -0.70089,-0.1554 -1.77346,-0.36852 -2.38428,-0.47381 -0.61018,-0.10529 -1.63772,-0.26196 -2.28343,-0.34822 -0.64506,-0.0863 -1.67261,-0.20044 -2.28343,-0.25435 -0.61018,-0.0533 -1.69227,-0.12623 -2.40394,-0.16175 -0.85755,-0.0425 -21.96216,-0.0609 -62.60404,-0.0545 z m 2.7528,57.09843 57.52975,0.009 0.41229,0.19726 c 0.22707,0.10847 0.53724,0.32222 0.68946,0.47571 0.15287,0.15287 0.36726,0.46367 0.47572,0.69074 l 0.19853,0.41229 v 29.68463 l -0.1776,0.38057 c -0.0976,0.20932 -0.32284,0.52836 -0.50044,0.70914 -0.19093,0.19409 -0.48206,0.4015 -0.71104,0.50742 l -0.38692,0.17887 H 221.81323 l -0.38691,-0.17887 c -0.22898,-0.10592 -0.52012,-0.31333 -0.71104,-0.50742 -0.1776,-0.18078 -0.40277,-0.49982 -0.50045,-0.70914 l -0.1776,-0.38057 V 328.6307 l 0.1776,-0.38057 c 0.0977,-0.20931 0.31144,-0.51821 0.47572,-0.68693 0.16364,-0.16872 0.43385,-0.37613 0.5994,-0.46113 0.16554,-0.085 0.40784,-0.1795 0.53914,-0.21058 0.13764,-0.0323 24.52467,-0.052 57.7676,-0.0463 z m 0,42.81431 57.52975,0.009 0.41229,0.19726 c 0.22707,0.10847 0.53724,0.32222 0.68946,0.47572 0.15287,0.15286 0.36726,0.46366 0.47572,0.69073 l 0.19853,0.41229 v 29.68459 l -0.19853,0.41228 c -0.10849,0.22644 -0.32285,0.53788 -0.47572,0.69074 -0.15222,0.1535 -0.46239,0.36725 -0.68946,0.47571 l -0.41229,0.19727 H 221.81323 l -0.38691,-0.17887 c -0.22898,-0.10586 -0.52012,-0.31334 -0.71104,-0.50743 -0.1776,-0.18077 -0.40277,-0.49982 -0.50045,-0.70913 l -0.1776,-0.38053 v -29.68459 l 0.1776,-0.38057 c 0.0977,-0.20931 0.31144,-0.51821 0.47572,-0.68693 0.16364,-0.16872 0.43385,-0.37613 0.5994,-0.46113 0.16554,-0.085 0.40784,-0.1795 0.53914,-0.21058 0.13764,-0.0324 24.52467,-0.052 57.7676,-0.0463 z m 0,42.81431 57.52975,0.009 0.41229,0.19726 c 0.22707,0.10849 0.53724,0.32221 0.68946,0.47572 0.15287,0.15285 0.36726,0.46365 0.47572,0.69073 l 0.19853,0.41229 v 29.68459 l -0.19853,0.41228 c -0.10849,0.22644 -0.32285,0.53788 -0.47572,0.69073 -0.15222,0.15351 -0.46239,0.36726 -0.68946,0.47572 l -0.41229,0.19727 H 221.81323 l -0.38691,-0.17887 c -0.22898,-0.10587 -0.52012,-0.31334 -0.71104,-0.50743 -0.1776,-0.18077 -0.40277,-0.49982 -0.50045,-0.70913 l -0.1776,-0.38019 v -29.68459 l 0.1776,-0.38057 c 0.0977,-0.20931 0.31144,-0.51821 0.47572,-0.68693 0.16364,-0.16871 0.43385,-0.37613 0.5994,-0.46112 0.16554,-0.085 0.40784,-0.17951 0.53914,-0.21059 0.13764,-0.0324 24.52467,-0.052 57.7676,-0.0463 z m -0.12685,-80.89368 h -54.70718 v 23.78573 h 109.41435 v -23.78573 z m -42.59231,4.7876 c 0.6457,0.0184 1.00724,0.0634 1.46964,0.18204 0.33744,0.0869 0.84233,0.25752 1.12205,0.37866 0.27972,0.12115 0.75987,0.38375 1.0675,0.58355 0.31017,0.20233 0.81569,0.62096 1.13728,0.94255 0.32158,0.32158 0.74021,0.82711 0.94255,1.13727 0.1998,0.30763 0.46239,0.78779 0.58354,1.06751 0.12115,0.27972 0.29431,0.78461 0.38438,1.12205 0.14588,0.54548 0.16428,0.73196 0.16428,1.69164 0,0.95967 -0.0184,1.14615 -0.16428,1.69164 -0.0901,0.33744 -0.26323,0.84233 -0.38438,1.12205 -0.12115,0.27972 -0.38374,0.75988 -0.58354,1.0675 -0.20234,0.31017 -0.62097,0.8157 -0.94255,1.13728 -0.32159,0.32158 -0.82711,0.74021 -1.13728,0.94255 -0.30763,0.1998 -0.78778,0.46239 -1.0675,0.58354 -0.27972,0.12115 -0.78461,0.29431 -1.12205,0.38375 -0.53724,0.14334 -0.74275,0.16428 -1.65993,0.16745 -0.87722,0.003 -1.13727,-0.0197 -1.60728,-0.13701 -0.3089,-0.0774 -0.82901,-0.25244 -1.15694,-0.38945 -0.32792,-0.13701 -0.84614,-0.41165 -1.15186,-0.61082 -0.30763,-0.1998 -0.81443,-0.6197 -1.13411,-0.94001 -0.32158,-0.32158 -0.74021,-0.82711 -0.94254,-1.13728 -0.1998,-0.30762 -0.4624,-0.78778 -0.58355,-1.0675 -0.12115,-0.27972 -0.29431,-0.78461 -0.38437,-1.12205 -0.14589,-0.54549 -0.16429,-0.73197 -0.16429,-1.69164 0,-0.95968 0.0184,-1.14616 0.16429,-1.69164 0.0901,-0.33744 0.26322,-0.84233 0.38437,-1.12205 0.12115,-0.27972 0.38375,-0.75988 0.58355,-1.06751 0.20233,-0.31016 0.62096,-0.81569 0.94254,-1.13727 0.31778,-0.31841 0.82267,-0.73768 1.12079,-0.93177 0.29875,-0.19409 0.77066,-0.45288 1.04911,-0.5753 0.27845,-0.12241 0.72181,-0.28162 0.98504,-0.35393 0.26323,-0.0723 0.64761,-0.15794 0.85375,-0.19028 0.20678,-0.033 0.76115,-0.0482 1.23179,-0.0355 z m 37.96202,-0.008 24.22973,0.009 0.41228,0.19726 c 0.22644,0.10847 0.53724,0.32222 0.68947,0.47572 0.15287,0.15286 0.36726,0.4643 0.47571,0.69074 l 0.19854,0.41228 v 10.65601 l -0.1776,0.38057 c -0.0976,0.20931 -0.32285,0.52836 -0.50045,0.70913 -0.19092,0.19409 -0.48206,0.4015 -0.71104,0.50743 l -0.38691,0.17888 h -48.71317 l -0.38692,-0.17887 c -0.22898,-0.10592 -0.52011,-0.31333 -0.71103,-0.50743 -0.1776,-0.18077 -0.40278,-0.49981 -0.50046,-0.70913 l -0.1776,-0.38057 v -10.656 l 0.1776,-0.38058 c 0.0977,-0.20931 0.31144,-0.51821 0.47572,-0.68693 0.16364,-0.16872 0.43385,-0.37613 0.5994,-0.46112 0.16555,-0.085 0.40785,-0.17951 0.53914,-0.21059 0.13637,-0.0324 10.53359,-0.052 24.46759,-0.0463 z m 33.31524,4.76412 c 0.32031,0.0171 0.56959,0.0749 0.82457,0.19092 0.20108,0.092 0.51314,0.31207 0.69391,0.48967 0.19599,0.19346 0.3996,0.47952 0.50553,0.71104 0.15223,0.33173 0.1776,0.4681 0.17824,0.95777 6.2e-4,0.49157 -0.0241,0.6235 -0.17571,0.95143 -0.0971,0.20931 -0.32221,0.52836 -0.49981,0.70913 -0.19346,0.196 -0.47952,0.3996 -0.71104,0.50553 -0.33173,0.15223 -0.4681,0.1776 -0.95777,0.17823 -0.49157,6.4e-4 -0.6235,-0.0241 -0.95143,-0.1757 -0.20931,-0.097 -0.52836,-0.32221 -0.70913,-0.49981 -0.19599,-0.19346 -0.3996,-0.47952 -0.50553,-0.71104 -0.15223,-0.33173 -0.1776,-0.4681 -0.17824,-0.95777 -6.2e-4,-0.49157 0.0241,-0.6235 0.17634,-0.95143 0.0971,-0.20931 0.31017,-0.51821 0.47445,-0.68693 0.16364,-0.16872 0.43384,-0.37613 0.5994,-0.46113 0.16555,-0.085 0.40785,-0.1814 0.53914,-0.21439 0.13067,-0.033 0.44464,-0.0488 0.69708,-0.0355 z m 9.51429,0 c 0.32031,0.0171 0.56959,0.0749 0.82457,0.19092 0.20108,0.092 0.51314,0.31207 0.69391,0.48967 0.19599,0.19346 0.39961,0.47952 0.50553,0.71104 0.15223,0.33173 0.1776,0.4681 0.17824,0.95777 6.3e-4,0.49157 -0.0241,0.6235 -0.17571,0.95143 -0.0971,0.20931 -0.32221,0.52836 -0.49981,0.70913 -0.19345,0.196 -0.47952,0.3996 -0.71104,0.50553 -0.33173,0.15223 -0.4681,0.1776 -0.95777,0.17823 -0.49157,6.4e-4 -0.6235,-0.0241 -0.95143,-0.1757 -0.20931,-0.097 -0.52836,-0.32221 -0.70913,-0.49981 -0.19599,-0.19346 -0.3996,-0.47952 -0.50553,-0.71104 -0.15222,-0.33173 -0.1776,-0.4681 -0.17823,-0.95777 -6.3e-4,-0.49157 0.0241,-0.6235 0.17633,-0.95143 0.0971,-0.20931 0.31017,-0.51821 0.47445,-0.68693 0.16365,-0.16872 0.43384,-0.37613 0.5994,-0.46113 0.16555,-0.085 0.40785,-0.1814 0.53914,-0.21439 0.13067,-0.033 0.44464,-0.0488 0.69708,-0.0355 z m 9.51429,0 c 0.32031,0.0171 0.56959,0.0749 0.82457,0.19092 0.20108,0.092 0.51314,0.31207 0.69392,0.48967 0.19599,0.19346 0.3996,0.47952 0.50552,0.71104 0.15223,0.33173 0.1776,0.4681 0.17824,0.95777 6.3e-4,0.49157 -0.0241,0.6235 -0.17571,0.95143 -0.0971,0.20931 -0.32221,0.52836 -0.49981,0.70913 -0.19345,0.196 -0.47952,0.3996 -0.71104,0.50553 -0.33173,0.15223 -0.4681,0.1776 -0.95777,0.17823 -0.49157,6.4e-4 -0.6235,-0.0241 -0.95143,-0.1757 -0.20931,-0.097 -0.52836,-0.32221 -0.70913,-0.49981 -0.19599,-0.19346 -0.3996,-0.47952 -0.50552,-0.71104 -0.15223,-0.33173 -0.1776,-0.4681 -0.17824,-0.95777 -6.3e-4,-0.49157 0.0241,-0.6235 0.17633,-0.95143 0.0971,-0.20931 0.31017,-0.51821 0.47445,-0.68693 0.16365,-0.16872 0.43385,-0.37613 0.5994,-0.46113 0.16555,-0.085 0.40785,-0.1814 0.53914,-0.21439 0.13067,-0.033 0.44464,-0.0488 0.69708,-0.0355 z m -90.54941,-0.026 c -0.19726,0.002 -0.51885,0.0546 -0.71357,0.11735 -0.19536,0.0622 -0.48904,0.20551 -0.65332,0.31904 -0.16428,0.11291 -0.39706,0.33871 -0.51757,0.50109 -0.11988,0.16301 -0.27528,0.47762 -0.34569,0.69962 -0.0698,0.22134 -0.12686,0.5537 -0.12686,0.73828 0,0.18458 0.0571,0.51694 0.12686,0.73831 0.0704,0.222 0.22581,0.5366 0.34569,0.69961 0.12051,0.16238 0.35329,0.38819 0.51694,0.50109 0.16428,0.11291 0.46747,0.25816 0.67488,0.32222 0.20741,0.0647 0.52836,0.11734 0.71421,0.11734 0.18584,0 0.50679,-0.0526 0.7142,-0.11734 0.20741,-0.0641 0.5106,-0.20932 0.67488,-0.32222 0.16365,-0.1129 0.39643,-0.33871 0.51695,-0.50109 0.11988,-0.16301 0.27528,-0.47761 0.34568,-0.69961 0.0698,-0.22137 0.12686,-0.55373 0.12686,-0.73831 0,-0.18458 -0.0571,-0.51694 -0.12686,-0.73831 -0.0704,-0.222 -0.2258,-0.53661 -0.34568,-0.69962 -0.12052,-0.16238 -0.3533,-0.38818 -0.51695,-0.50108 -0.16428,-0.11291 -0.46747,-0.25816 -0.67488,-0.32222 -0.20741,-0.0647 -0.53851,-0.11608 -0.73577,-0.11417 z m 38.07873,-0.003 h -21.40715 v 4.75714 h 42.81431 v -4.75714 z m 4.75715,33.30001 h -54.70718 v 23.78573 h 109.41435 v -23.78573 z m -42.59231,4.7876 c 0.6457,0.0184 1.00724,0.0634 1.46964,0.18204 0.33744,0.0869 0.84233,0.25752 1.12205,0.37866 0.27972,0.12115 0.75987,0.38375 1.0675,0.58355 0.31017,0.20234 0.81569,0.62096 1.13728,0.94255 0.32158,0.32158 0.74021,0.82711 0.94255,1.13727 0.1998,0.30763 0.46239,0.78779 0.58354,1.06751 0.12115,0.27972 0.29431,0.78461 0.38438,1.12205 0.14588,0.54549 0.16428,0.73196 0.16428,1.69164 0,0.95968 -0.0184,1.14615 -0.16428,1.69164 -0.0901,0.33744 -0.26323,0.84233 -0.38438,1.12206 -0.12115,0.27971 -0.38374,0.75986 -0.58354,1.06749 -0.20234,0.31017 -0.62097,0.8157 -0.94255,1.13728 -0.32159,0.32158 -0.82711,0.74021 -1.13728,0.94255 -0.30763,0.1998 -0.78778,0.46239 -1.0675,0.58354 -0.27972,0.12115 -0.78461,0.29431 -1.12205,0.38375 -0.53724,0.14334 -0.74275,0.16427 -1.65993,0.16744 -0.87722,0.002 -1.13727,-0.0196 -1.60728,-0.13699 -0.3089,-0.0773 -0.82901,-0.25245 -1.15694,-0.38946 -0.32792,-0.137 -0.84614,-0.41165 -1.15186,-0.61082 -0.30763,-0.1998 -0.81443,-0.6197 -1.13411,-0.94001 -0.32158,-0.32158 -0.74021,-0.82711 -0.94254,-1.13728 -0.1998,-0.30763 -0.4624,-0.78778 -0.58355,-1.06749 -0.12115,-0.27973 -0.29431,-0.78462 -0.38437,-1.12206 -0.14589,-0.54549 -0.16429,-0.73196 -0.16429,-1.69164 0,-0.95968 0.0184,-1.14615 0.16429,-1.69164 0.0901,-0.33744 0.26322,-0.84233 0.38437,-1.12205 0.12115,-0.27972 0.38375,-0.75988 0.58355,-1.06751 0.20233,-0.31016 0.62096,-0.81569 0.94254,-1.13727 0.31778,-0.31841 0.82267,-0.73768 1.12079,-0.93177 0.29875,-0.19409 0.77066,-0.45288 1.04911,-0.5753 0.27845,-0.12241 0.72181,-0.28162 0.98504,-0.35393 0.26323,-0.0723 0.64761,-0.15794 0.85375,-0.19028 0.20678,-0.033 0.76115,-0.0482 1.23179,-0.0355 z m 37.96202,-0.008 24.22973,0.009 0.41228,0.19726 c 0.22644,0.10847 0.53724,0.32222 0.68947,0.47572 0.15287,0.15286 0.36726,0.46366 0.47571,0.69074 l 0.19854,0.41228 v 10.65601 l -0.19854,0.41229 c -0.10849,0.22643 -0.32284,0.53787 -0.47571,0.69073 -0.15223,0.15351 -0.46303,0.36726 -0.68947,0.47571 l -0.41228,0.19727 h -48.71317 l -0.38692,-0.17887 c -0.22898,-0.10586 -0.52011,-0.31334 -0.71103,-0.50742 -0.1776,-0.18078 -0.40278,-0.49982 -0.50046,-0.70914 l -0.1776,-0.38057 v -10.65601 l 0.1776,-0.38057 c 0.0977,-0.20931 0.31144,-0.51821 0.47572,-0.68693 0.16364,-0.16872 0.43385,-0.37613 0.5994,-0.46113 0.16555,-0.085 0.40785,-0.1795 0.53914,-0.21058 0.13637,-0.0324 10.53359,-0.052 24.46759,-0.0463 z m 33.31524,4.76412 c 0.32031,0.0171 0.56959,0.0748 0.82457,0.19093 0.20108,0.0919 0.51314,0.31206 0.69391,0.48966 0.19599,0.19346 0.3996,0.47953 0.50553,0.71104 0.15223,0.33173 0.1776,0.46811 0.17824,0.95777 6.2e-4,0.49157 -0.0241,0.62351 -0.17571,0.95143 -0.0971,0.20932 -0.32221,0.52836 -0.49981,0.70914 -0.19346,0.19599 -0.47952,0.3996 -0.71104,0.50552 -0.33173,0.15223 -0.4681,0.1776 -0.95777,0.17824 -0.49157,6.3e-4 -0.6235,-0.0241 -0.95143,-0.17571 -0.20931,-0.0971 -0.52836,-0.32221 -0.70913,-0.49981 -0.19599,-0.19345 -0.3996,-0.47952 -0.50553,-0.71104 -0.15223,-0.33173 -0.1776,-0.4681 -0.17824,-0.95777 -6.2e-4,-0.49157 0.0241,-0.6235 0.17634,-0.95143 0.0971,-0.20931 0.31017,-0.51821 0.47445,-0.68693 0.16364,-0.16871 0.43384,-0.37613 0.5994,-0.46112 0.16555,-0.085 0.40785,-0.18141 0.53914,-0.2144 0.13067,-0.033 0.44464,-0.0488 0.69708,-0.0355 z m 9.51429,0 c 0.32031,0.0171 0.56959,0.0748 0.82457,0.19093 0.20108,0.0919 0.51314,0.31206 0.69391,0.48966 0.19599,0.19346 0.39961,0.47953 0.50553,0.71104 0.15223,0.33173 0.1776,0.46811 0.17824,0.95777 6.3e-4,0.49157 -0.0241,0.62351 -0.17571,0.95143 -0.0971,0.20932 -0.32221,0.52836 -0.49981,0.70914 -0.19345,0.19599 -0.47952,0.3996 -0.71104,0.50552 -0.33173,0.15223 -0.4681,0.1776 -0.95777,0.17824 -0.49157,6.3e-4 -0.6235,-0.0241 -0.95143,-0.17571 -0.20931,-0.0971 -0.52836,-0.32221 -0.70913,-0.49981 -0.19599,-0.19345 -0.3996,-0.47952 -0.50553,-0.71104 -0.15222,-0.33173 -0.1776,-0.4681 -0.17823,-0.95777 -6.3e-4,-0.49157 0.0241,-0.6235 0.17633,-0.95143 0.0971,-0.20931 0.31017,-0.51821 0.47445,-0.68693 0.16365,-0.16871 0.43384,-0.37613 0.5994,-0.46112 0.16555,-0.085 0.40785,-0.18141 0.53914,-0.2144 0.13067,-0.033 0.44464,-0.0488 0.69708,-0.0355 z m 9.51429,0 c 0.32031,0.0171 0.56959,0.0748 0.82457,0.19093 0.20108,0.0919 0.51314,0.31206 0.69392,0.48966 0.19599,0.19346 0.3996,0.47953 0.50552,0.71104 0.15223,0.33173 0.1776,0.46811 0.17824,0.95777 6.3e-4,0.49157 -0.0241,0.62351 -0.17571,0.95143 -0.0971,0.20932 -0.32221,0.52836 -0.49981,0.70914 -0.19345,0.19599 -0.47952,0.3996 -0.71104,0.50552 -0.33173,0.15223 -0.4681,0.1776 -0.95777,0.17824 -0.49157,6.3e-4 -0.6235,-0.0241 -0.95143,-0.17571 -0.20931,-0.0971 -0.52836,-0.32221 -0.70913,-0.49981 -0.19599,-0.19345 -0.3996,-0.47952 -0.50552,-0.71104 -0.15223,-0.33173 -0.1776,-0.4681 -0.17824,-0.95777 -6.3e-4,-0.49157 0.0241,-0.6235 0.17633,-0.95143 0.0971,-0.20931 0.31017,-0.51821 0.47445,-0.68693 0.16365,-0.16871 0.43385,-0.37613 0.5994,-0.46112 0.16555,-0.085 0.40785,-0.18141 0.53914,-0.2144 0.13067,-0.033 0.44464,-0.0488 0.69708,-0.0355 z m -90.54941,-0.026 c -0.19726,0.002 -0.51885,0.0546 -0.71357,0.11734 -0.19536,0.0622 -0.48904,0.20551 -0.65332,0.31905 -0.16428,0.11294 -0.39706,0.33871 -0.51757,0.50109 -0.11988,0.16301 -0.27528,0.47762 -0.34569,0.69962 -0.0698,0.22136 -0.12686,0.55372 -0.12686,0.7383 0,0.18458 0.0571,0.51694 0.12686,0.73831 0.0704,0.222 0.22581,0.53661 0.34569,0.69962 0.12051,0.16238 0.35329,0.38818 0.51694,0.50108 0.16428,0.11294 0.46747,0.25815 0.67488,0.32222 0.20741,0.0647 0.52836,0.11734 0.71421,0.11734 0.18584,0 0.50679,-0.0526 0.7142,-0.11734 0.20741,-0.0641 0.5106,-0.20931 0.67488,-0.32222 0.16365,-0.11294 0.39643,-0.3387 0.51695,-0.50108 0.11988,-0.16301 0.27528,-0.47762 0.34568,-0.69962 0.0698,-0.22137 0.12686,-0.55373 0.12686,-0.73831 0,-0.18458 -0.0571,-0.51694 -0.12686,-0.7383 -0.0704,-0.222 -0.2258,-0.53661 -0.34568,-0.69962 -0.12052,-0.16238 -0.3533,-0.38818 -0.51695,-0.50109 -0.16428,-0.11294 -0.46747,-0.25815 -0.67488,-0.32222 -0.20741,-0.0647 -0.53851,-0.11607 -0.73577,-0.11417 z m 38.07873,-0.003 h -21.40715 v 4.75714 h 42.81431 v -4.75714 z m 4.75715,33.30001 h -54.70718 v 23.78573 h 109.41435 v -23.78573 z m -42.59231,4.7876 c 0.6457,0.0184 1.00724,0.0634 1.46964,0.18204 0.33744,0.0869 0.84233,0.25752 1.12205,0.37866 0.27972,0.12116 0.75987,0.38375 1.0675,0.58355 0.31017,0.20234 0.81569,0.62097 1.13728,0.94255 0.32158,0.32158 0.74021,0.8271 0.94255,1.13728 0.1998,0.30763 0.46239,0.78778 0.58354,1.06749 0.12115,0.27973 0.29431,0.78462 0.38438,1.12206 0.14588,0.54549 0.16428,0.73196 0.16428,1.69164 0,0.95968 -0.0184,1.14615 -0.16428,1.69164 -0.0901,0.33744 -0.26323,0.84233 -0.38438,1.12206 -0.12115,0.27971 -0.38374,0.75986 -0.58354,1.06749 -0.20234,0.31017 -0.62097,0.8157 -0.94255,1.13728 -0.32159,0.32158 -0.82711,0.74021 -1.13728,0.94255 -0.30763,0.1998 -0.78778,0.46239 -1.0675,0.58354 -0.27972,0.12115 -0.78461,0.29431 -1.12205,0.38375 -0.53724,0.14334 -0.74275,0.16427 -1.65993,0.16745 -0.87722,0.002 -1.13727,-0.0196 -1.60728,-0.137 -0.3089,-0.0774 -0.82901,-0.25245 -1.15694,-0.38946 -0.32792,-0.137 -0.84614,-0.41165 -1.15186,-0.61082 -0.30763,-0.1998 -0.81443,-0.6197 -1.13411,-0.94001 -0.32158,-0.32158 -0.74021,-0.82711 -0.94254,-1.13728 -0.1998,-0.30763 -0.4624,-0.78778 -0.58355,-1.06749 -0.12115,-0.27973 -0.29431,-0.78462 -0.38437,-1.12206 -0.14589,-0.54549 -0.16429,-0.73196 -0.16429,-1.69164 0,-0.95968 0.0184,-1.14615 0.16429,-1.69164 0.0901,-0.33744 0.26322,-0.84233 0.38437,-1.12206 0.12115,-0.27971 0.38375,-0.75986 0.58355,-1.06749 0.20233,-0.31018 0.62096,-0.8157 0.94254,-1.13728 0.31778,-0.31841 0.82267,-0.73768 1.12079,-0.93177 0.29875,-0.19409 0.77066,-0.45288 1.04911,-0.5753 0.27845,-0.12242 0.72181,-0.28162 0.98504,-0.35393 0.26323,-0.0723 0.64761,-0.15794 0.85375,-0.19029 0.20678,-0.033 0.76115,-0.0481 1.23179,-0.0355 z m 37.96202,-0.008 24.22973,0.009 0.41228,0.19727 c 0.22644,0.10849 0.53724,0.32221 0.68947,0.47571 0.15287,0.15286 0.36726,0.46366 0.47571,0.69073 l 0.19854,0.41229 v 10.65601 l -0.19854,0.41228 c -0.10849,0.22644 -0.32284,0.53788 -0.47571,0.69074 -0.15223,0.1535 -0.46303,0.36725 -0.68947,0.47571 l -0.41228,0.19727 h -48.71317 l -0.38692,-0.17887 c -0.22898,-0.10587 -0.52011,-0.31334 -0.71103,-0.50743 -0.1776,-0.18077 -0.40278,-0.49982 -0.50046,-0.70913 l -0.1776,-0.38057 v -10.65601 l 0.1776,-0.38057 c 0.0977,-0.20932 0.31144,-0.51821 0.47572,-0.68694 0.16364,-0.16871 0.43385,-0.37613 0.5994,-0.46112 0.16555,-0.085 0.40785,-0.1795 0.53914,-0.21058 0.13637,-0.0324 10.53359,-0.052 24.46759,-0.0463 z m 33.31524,4.76413 c 0.32031,0.0171 0.56959,0.0748 0.82457,0.19091 0.20108,0.0919 0.51314,0.31207 0.69391,0.48967 0.19599,0.19346 0.3996,0.47952 0.50553,0.71104 0.15223,0.33173 0.1776,0.4681 0.17824,0.95777 6.2e-4,0.49157 -0.0241,0.62351 -0.17571,0.95143 -0.0971,0.20931 -0.32221,0.52836 -0.49981,0.70913 -0.19346,0.19599 -0.47952,0.3996 -0.71104,0.50553 -0.33173,0.15223 -0.4681,0.1776 -0.95777,0.17824 -0.49157,6.2e-4 -0.6235,-0.0241 -0.95143,-0.17571 -0.20931,-0.0971 -0.52836,-0.32221 -0.70913,-0.49981 -0.19599,-0.19345 -0.3996,-0.47952 -0.50553,-0.71104 -0.15223,-0.33173 -0.1776,-0.4681 -0.17824,-0.95777 -6.2e-4,-0.49157 0.0241,-0.6235 0.17634,-0.95143 0.0971,-0.20931 0.31017,-0.51821 0.47445,-0.68693 0.16364,-0.16872 0.43384,-0.37614 0.5994,-0.46113 0.16555,-0.085 0.40785,-0.18141 0.53914,-0.21439 0.13067,-0.033 0.44464,-0.0488 0.69708,-0.0355 z m 9.51429,0 c 0.32031,0.0171 0.56959,0.0748 0.82457,0.19091 0.20108,0.0919 0.51314,0.31207 0.69391,0.48967 0.19599,0.19346 0.39961,0.47952 0.50553,0.71104 0.15223,0.33173 0.1776,0.4681 0.17824,0.95777 6.3e-4,0.49157 -0.0241,0.62351 -0.17571,0.95143 -0.0971,0.20931 -0.32221,0.52836 -0.49981,0.70913 -0.19345,0.19599 -0.47952,0.3996 -0.71104,0.50553 -0.33173,0.15223 -0.4681,0.1776 -0.95777,0.17824 -0.49157,6.2e-4 -0.6235,-0.0241 -0.95143,-0.17571 -0.20931,-0.0971 -0.52836,-0.32221 -0.70913,-0.49981 -0.19599,-0.19345 -0.3996,-0.47952 -0.50553,-0.71104 -0.15222,-0.33173 -0.1776,-0.4681 -0.17823,-0.95777 -6.3e-4,-0.49157 0.0241,-0.6235 0.17633,-0.95143 0.0971,-0.20931 0.31017,-0.51821 0.47445,-0.68693 0.16365,-0.16872 0.43384,-0.37614 0.5994,-0.46113 0.16555,-0.085 0.40785,-0.18141 0.53914,-0.21439 0.13067,-0.033 0.44464,-0.0488 0.69708,-0.0355 z m 9.51429,0 c 0.32031,0.0171 0.56959,0.0748 0.82457,0.19091 0.20108,0.0919 0.51314,0.31207 0.69392,0.48967 0.19599,0.19346 0.3996,0.47952 0.50552,0.71104 0.15223,0.33173 0.1776,0.4681 0.17824,0.95777 6.3e-4,0.49157 -0.0241,0.62351 -0.17571,0.95143 -0.0971,0.20931 -0.32221,0.52836 -0.49981,0.70913 -0.19345,0.19599 -0.47952,0.3996 -0.71104,0.50553 -0.33173,0.15223 -0.4681,0.1776 -0.95777,0.17824 -0.49157,6.2e-4 -0.6235,-0.0241 -0.95143,-0.17571 -0.20931,-0.0971 -0.52836,-0.32221 -0.70913,-0.49981 -0.19599,-0.19345 -0.3996,-0.47952 -0.50552,-0.71104 -0.15223,-0.33173 -0.1776,-0.4681 -0.17824,-0.95777 -6.3e-4,-0.49157 0.0241,-0.6235 0.17633,-0.95143 0.0971,-0.20931 0.31017,-0.51821 0.47445,-0.68693 0.16365,-0.16872 0.43385,-0.37614 0.5994,-0.46113 0.16555,-0.085 0.40785,-0.18141 0.53914,-0.21439 0.13067,-0.033 0.44464,-0.0488 0.69708,-0.0355 z m -90.54941,-0.026 c -0.19726,0.002 -0.51885,0.0545 -0.71357,0.11734 -0.19536,0.0622 -0.48904,0.20551 -0.65332,0.31905 -0.16428,0.11294 -0.39706,0.33871 -0.51757,0.50109 -0.11988,0.16301 -0.27528,0.47762 -0.34569,0.69962 -0.0698,0.22136 -0.12686,0.55372 -0.12686,0.7383 0,0.18458 0.0571,0.51694 0.12686,0.73831 0.0704,0.222 0.22581,0.53661 0.34569,0.69962 0.12051,0.16238 0.35329,0.38818 0.51694,0.50108 0.16428,0.11294 0.46747,0.25815 0.67488,0.32222 0.20741,0.0647 0.52836,0.11734 0.71421,0.11734 0.18584,0 0.50679,-0.0527 0.7142,-0.11734 0.20741,-0.0641 0.5106,-0.20931 0.67488,-0.32222 0.16365,-0.11294 0.39643,-0.3387 0.51695,-0.50108 0.11988,-0.16301 0.27528,-0.47762 0.34568,-0.69962 0.0698,-0.22137 0.12686,-0.55373 0.12686,-0.73831 0,-0.18458 -0.0571,-0.51694 -0.12686,-0.7383 -0.0704,-0.222 -0.2258,-0.53661 -0.34568,-0.69962 -0.12052,-0.16238 -0.3533,-0.38818 -0.51695,-0.50109 -0.16428,-0.11294 -0.46747,-0.25815 -0.67488,-0.32222 -0.20741,-0.0647 -0.53851,-0.11608 -0.73577,-0.11417 z m 38.07873,-0.003 h -21.40715 v 4.75714 h 42.81431 v -4.75714 z"
       id="icon" /><g
       transform="translate(162.91977)"
       style="font-variant-ligatures:none"
       id="title"><path
         d="m 426.32506,-33.768 c -3.888,-3.888 -8.568,-5.832 -14.112,-5.832 -5.544,0 -10.224,1.944 -14.112,5.832 -3.888,3.888 -5.832,8.64 -5.832,14.112 v 33.12 c 0,1.008 0.288,1.8 1.008,2.448 0.648,0.72 1.44,1.008 2.448,1.008 0.936,0 1.728,-0.288 2.376,-1.008 0.72,-0.648 1.08,-1.44 1.08,-2.448 v -18 c 3.672,3.24 8.064,4.896 13.032,4.896 5.544,0 10.224,-1.944 14.112,-5.832 3.888,-3.96 5.904,-8.64 5.904,-14.184 0,-5.472 -2.016,-10.224 -5.904,-14.112 z m -14.112,27.216 c -3.6,0 -6.696,-1.296 -9.216,-3.816 -2.592,-2.592 -3.816,-5.688 -3.816,-9.288 0,-2.304 0.576,-4.536 1.728,-6.552 1.152,-2.016 2.736,-3.6 4.752,-4.752 2.016,-1.152 4.176,-1.728 6.552,-1.728 3.6,0 6.696,1.296 9.216,3.816 2.592,2.592 3.888,5.616 3.888,9.216 0,3.6 -1.296,6.696 -3.888,9.288 -2.52,2.52 -5.616,3.816 -9.216,3.816 z"
         transform="matrix(1.7353364,0,0,1.7353364,-402.55831,396.56653)"
         style="font-variant-ligatures:none"
         id="path275473" /><path
         d="m 473.11269,-36.216 c 0,-1.296 -0.792,-2.232 -2.232,-2.808 -0.576,-0.216 -1.152,-0.36 -1.728,-0.36 -1.296,0 -2.232,0.72 -2.808,2.088 l -11.592,26.136 -13.176,-26.208 c -0.72,-1.296 -1.728,-2.016 -3.024,-2.016 -0.576,0 -1.008,0.144 -1.44,0.288 -0.648,0.288 -1.152,0.72 -1.512,1.224 -0.432,0.576 -0.576,1.152 -0.576,1.728 0,0.576 0.072,1.08 0.36,1.512 l 16.2,30.744 -7.2,16.2 c -0.288,0.576 -0.432,1.152 -0.432,1.728 0,1.296 0.72,2.232 2.16,2.808 0.648,0.288 1.224,0.432 1.728,0.432 1.296,0 2.232,-0.72 2.808,-2.232 l 22.032,-49.536 c 0.288,-0.648 0.432,-1.224 0.432,-1.728 z"
         transform="matrix(1.7353364,0,0,1.7353364,-402.55831,396.56653)"
         style="font-variant-ligatures:none"
         id="path275475" /><path
         d="m 501.55719,-40.464 c -6.048,0 -11.16,2.16 -15.48,6.408 -4.248,4.248 -6.336,9.36 -6.336,15.408 v 15.192 c 0,1.008 0.288,1.8 1.008,2.448 0.648,0.72 1.44,1.008 2.448,1.008 0.936,0 1.728,-0.288 2.376,-1.008 0.72,-0.648 1.08,-1.44 1.08,-2.448 v -15.192 c 0,-4.104 1.44,-7.632 4.32,-10.512 2.952,-2.952 6.48,-4.392 10.584,-4.392 0.936,0 1.728,-0.36 2.448,-1.008 0.648,-0.72 1.008,-1.512 1.008,-2.448 0,-0.936 -0.36,-1.8 -1.008,-2.448 -0.72,-0.648 -1.512,-1.008 -2.448,-1.008 z"
         transform="matrix(1.7353364,0,0,1.7353364,-402.55831,396.56653)"
         style="font-variant-ligatures:none"
         id="path275477" /><path
         d="m 543.62431,-33.768 c -3.888,-3.888 -8.568,-5.904 -14.112,-5.904 -5.472,0 -10.224,2.016 -14.112,5.904 -3.888,3.888 -5.832,8.568 -5.832,14.112 0,5.544 1.944,10.224 5.832,14.112 3.888,3.888 8.64,5.832 14.112,5.832 4.968,0 9.36,-1.584 13.104,-4.824 v 1.368 c 0,1.008 0.288,1.8 1.008,2.448 0.648,0.72 1.44,1.008 2.448,1.008 0.936,0 1.728,-0.288 2.448,-1.008 0.648,-0.648 1.008,-1.44 1.008,-2.448 v -16.488 c 0,-5.544 -1.944,-10.224 -5.904,-14.112 z m -14.112,27.144 c -3.6,0 -6.696,-1.224 -9.216,-3.816 -2.592,-2.52 -3.816,-5.616 -3.816,-9.216 0,-3.6 1.224,-6.696 3.816,-9.216 2.52,-2.592 5.616,-3.888 9.216,-3.888 3.6,0 6.696,1.296 9.216,3.888 2.592,2.52 3.888,5.616 3.888,9.216 0,3.6 -1.296,6.696 -3.888,9.216 -2.52,2.592 -5.616,3.816 -9.216,3.816 z"
         transform="matrix(1.7353364,0,0,1.7353364,-402.55831,396.56653)"
         style="font-variant-ligatures:none"
         id="path275479" /><path
         d="m 592.06456,-33.192 c -3.744,-4.32 -8.496,-6.48 -14.112,-6.48 -3.744,0 -7.128,0.864 -10.08,2.592 -3.024,1.728 -5.328,4.104 -6.984,7.128 -1.656,3.024 -2.448,6.48 -2.448,10.296 0,3.744 0.792,7.2 2.52,10.224 1.728,3.024 4.104,5.4 7.128,7.128 3.024,1.728 6.408,2.592 10.224,2.592 5.184,0 9.504,-1.584 12.96,-4.824 0.576,-0.576 0.864,-1.224 0.864,-1.944 0,-0.936 -0.504,-1.8 -1.368,-2.592 -0.576,-0.432 -1.224,-0.648 -1.872,-0.648 -0.864,0 -1.8,0.36 -2.664,1.008 -2.016,1.728 -4.68,2.52 -7.92,2.52 -2.52,0 -4.752,-0.576 -6.696,-1.728 -1.944,-1.152 -3.456,-2.736 -4.536,-4.752 -1.08,-2.016 -1.584,-4.392 -1.584,-6.984 0,-4.032 1.152,-7.344 3.456,-9.792 2.304,-2.448 5.256,-3.744 9,-3.744 1.8,0 3.384,0.36 4.824,0.936 1.44,0.576 2.736,1.512 3.96,2.808 0.72,0.864 1.656,1.296 2.808,1.296 0.576,0 1.152,-0.144 1.656,-0.504 1.008,-0.72 1.584,-1.584 1.584,-2.664 0,-0.72 -0.288,-1.296 -0.72,-1.872 z"
         transform="matrix(1.7353364,0,0,1.7353364,-402.55831,396.56653)"
         style="font-variant-ligatures:none"
         id="path275481" /><path
         d="m 634.29706,-3.024 c 0,-0.864 -0.288,-1.584 -0.792,-2.16 l -13.968,-17.136 13.248,-11.808 c 0.72,-0.576 1.152,-1.44 1.152,-2.448 0,-0.864 -0.36,-1.584 -0.936,-2.232 -0.648,-0.72 -1.44,-1.152 -2.448,-1.152 -0.864,0 -1.656,0.36 -2.232,0.936 l -17.496,15.624 v -29.304 c 0,-1.008 -0.36,-1.872 -1.008,-2.52 -0.648,-0.648 -1.512,-1.008 -2.52,-1.008 -1.08,0 -1.944,0.36 -2.592,1.008 -0.648,0.648 -0.936,1.512 -0.936,2.52 v 49.176 c 0,1.08 0.288,1.944 0.936,2.592 0.648,0.648 1.512,0.936 2.592,0.936 1.008,0 1.872,-0.288 2.52,-0.936 0.648,-0.648 1.008,-1.512 1.008,-2.592 v -11.016 l 3.6,-3.168 13.68,16.92 c 0.648,0.864 1.512,1.296 2.592,1.296 0.792,0 1.584,-0.288 2.304,-0.864 0.864,-0.72 1.296,-1.584 1.296,-2.664 z"
         transform="matrix(1.7353364,0,0,1.7353364,-402.55831,396.56653)"
         style="font-variant-ligatures:none"
         id="path275483" /></g><g
       transform="translate(162.91977)"
       style="font-variant-ligatures:none"
       id="subtitle"><path
         d="m 245.2265,0 v -16.352 l -6.752,12.384 h -1.984 l -6.784,-12.384 V 0 h -3.584 v -22.72 h 3.84 l 7.52,13.888 7.52,-13.888 h 3.84 V 0 Z"
         transform="matrix(0.74,0,0,0.74,110.82982,463.63954)"
         style="font-variant-ligatures:none"
         id="path275486" /><path
         d="m 257.7475,0.32 q -1.216,0 -2.272,-0.384 -1.024,-0.416 -1.792,-1.12 -0.736,-0.704 -1.184,-1.664 -0.416,-0.96 -0.416,-2.08 0,-1.184 0.512,-2.144 0.512,-0.96 1.44,-1.664 0.96,-0.704 2.24,-1.088 1.312,-0.384 2.88,-0.384 1.184,0 2.336,0.224 1.152,0.192 2.08,0.544 v -1.152 q 0,-1.856 -1.056,-2.88 -1.056,-1.056 -3.04,-1.056 -1.344,0 -2.656,0.512 -1.28,0.48 -2.656,1.408 l -1.088,-2.24 q 3.232,-2.176 6.72,-2.176 3.456,0 5.376,1.76 1.92,1.76 1.92,5.056 v 6.048 q 0,1.12 0.928,1.152 V 0 q -0.512,0.096 -0.896,0.128 -0.352,0.032 -0.704,0.032 -1.024,0 -1.6,-0.512 -0.544,-0.512 -0.672,-1.312 l -0.096,-1.056 q -1.12,1.472 -2.784,2.272 -1.632,0.768 -3.52,0.768 z m 0.96,-2.592 q 1.28,0 2.4,-0.448 1.152,-0.48 1.792,-1.312 0.672,-0.576 0.672,-1.216 v -2.208 q -0.896,-0.352 -1.92,-0.544 -0.992,-0.192 -1.952,-0.192 -1.888,0 -3.104,0.832 -1.184,0.8 -1.184,2.144 0,1.248 0.928,2.112 0.928,0.832 2.368,0.832 z"
         transform="matrix(0.74,0,0,0.74,110.82982,463.63954)"
         style="font-variant-ligatures:none"
         id="path275488" /><path
         d="m 283.01,0 -5.344,-7.712 -2.784,2.624 V 0 h -3.52 v -23.36 h 3.52 v 14.816 l 7.68,-8.16 h 3.84 l -6.496,7.008 6.848,9.696 z"
         transform="matrix(0.74,0,0,0.74,110.82982,463.63954)"
         style="font-variant-ligatures:none"
         id="path275490" /><path
         d="m 288.9245,0 v -16.736 h 3.52 V 0 Z m 0,-19.488 v -3.872 h 3.52 v 3.872 z"
         transform="matrix(0.74,0,0,0.74,110.82982,463.63954)"
         style="font-variant-ligatures:none"
         id="path275492" /><path
         d="m 311.6825,0 h -3.52 v -9.376 q 0,-2.368 -0.768,-3.424 -0.736,-1.088 -2.208,-1.088 -0.768,0 -1.536,0.288 -0.768,0.288 -1.44,0.832 -0.672,0.512 -1.216,1.248 -0.512,0.704 -0.8,1.568 V 0 h -3.52 v -16.736 h 3.2 v 3.36 q 0.96,-1.696 2.784,-2.656 1.824,-0.992 4.032,-0.992 1.504,0 2.464,0.544 0.96,0.544 1.504,1.504 0.576,0.928 0.8,2.176 0.224,1.216 0.224,2.592 z"
         transform="matrix(0.74,0,0,0.74,110.82982,463.63954)"
         style="font-variant-ligatures:none"
         id="path275494" /><path
         d="m 322.4235,0.16 q -1.696,0 -3.104,-0.672 -1.408,-0.704 -2.432,-1.888 -0.992,-1.184 -1.568,-2.72 -0.544,-1.536 -0.544,-3.232 0,-1.792 0.576,-3.36 0.576,-1.6 1.6,-2.752 1.024,-1.184 2.432,-1.856 1.44,-0.704 3.168,-0.704 2.016,0 3.52,0.96 1.536,0.96 2.528,2.496 v -3.168 h 3.104 V -0.48 q 0,1.824 -0.672,3.232 -0.672,1.408 -1.888,2.368 -1.184,0.992 -2.816,1.504 -1.632,0.512 -3.52,0.512 -2.784,0 -4.64,-0.96 -1.824,-0.928 -3.072,-2.624 l 1.984,-1.856 q 0.96,1.344 2.464,2.048 1.536,0.704 3.264,0.704 1.088,0 2.048,-0.288 0.992,-0.288 1.728,-0.896 0.736,-0.608 1.152,-1.536 0.448,-0.928 0.448,-2.208 v -2.56 q -0.896,1.536 -2.464,2.368 -1.568,0.832 -3.296,0.832 z m 1.152,-2.848 q 0.8,0 1.536,-0.256 0.736,-0.288 1.344,-0.736 0.64,-0.48 1.088,-1.056 0.448,-0.608 0.64,-1.28 V -10.4 q -0.32,-0.8 -0.832,-1.44 -0.512,-0.672 -1.184,-1.152 -0.64,-0.48 -1.376,-0.736 -0.736,-0.288 -1.472,-0.288 -1.152,0 -2.08,0.512 -0.896,0.48 -1.536,1.312 -0.64,0.8 -0.992,1.824 -0.352,1.024 -0.352,2.112 0,1.152 0.384,2.176 0.416,0.992 1.12,1.76 0.704,0.736 1.632,1.184 0.96,0.448 2.08,0.448 z"
         transform="matrix(0.74,0,0,0.74,110.82982,463.63954)"
         style="font-variant-ligatures:none"
         id="path275496" /><path
         d="m 344.2475,0 v -22.72 h 9.536 q 1.536,0 2.816,0.64 1.312,0.64 2.24,1.696 0.928,1.024 1.44,2.368 0.544,1.312 0.544,2.688 0,1.44 -0.512,2.784 -0.48,1.312 -1.376,2.368 -0.896,1.024 -2.176,1.664 -1.248,0.608 -2.784,0.608 h -6.144 V 0 Z m 3.584,-11.072 h 5.92 q 0.768,0 1.376,-0.32 0.64,-0.32 1.088,-0.896 0.448,-0.576 0.704,-1.344 0.256,-0.768 0.256,-1.696 0,-0.96 -0.288,-1.728 -0.288,-0.768 -0.8,-1.312 -0.512,-0.576 -1.184,-0.864 -0.64,-0.32 -1.344,-0.32 h -5.728 z"
         transform="matrix(0.74,0,0,0.74,110.82982,463.63954)"
         style="font-variant-ligatures:none"
         id="path275498" /><path
         d="m 364.313,3.936 q 0.48,0.096 0.928,0.16 0.48,0.064 0.768,0.064 0.416,0 0.704,-0.192 0.32,-0.16 0.64,-0.608 0.32,-0.448 0.64,-1.28 0.352,-0.8 0.8,-2.08 l -6.88,-16.736 h 3.616 l 5.184,13.632 4.608,-13.632 h 3.328 l -7.584,20.608 q -0.512,1.44 -1.792,2.4 -1.248,0.992 -3.232,0.992 -0.384,0 -0.8,-0.064 -0.416,-0.032 -0.928,-0.192 z"
         transform="matrix(0.74,0,0,0.74,110.82982,463.63954)"
         style="font-variant-ligatures:none"
         id="path275500" /><path
         d="m 390.549,-0.864 q -0.672,0.32 -1.856,0.736 -1.184,0.384 -2.528,0.384 -0.832,0 -1.568,-0.224 -0.736,-0.224 -1.312,-0.672 -0.544,-0.448 -0.864,-1.152 -0.32,-0.736 -0.32,-1.76 v -10.464 h -2.208 v -2.72 h 2.208 v -5.504 h 3.52 v 5.504 h 3.648 v 2.72 h -3.648 v 9.344 q 0.064,0.896 0.544,1.312 0.512,0.384 1.248,0.384 0.736,0 1.408,-0.256 0.672,-0.256 0.992,-0.416 z"
         transform="matrix(0.74,0,0,0.74,110.82982,463.63954)"
         style="font-variant-ligatures:none"
         id="path275502" /><path
         d="m 407.995,0 h -3.52 v -9.376 q 0,-2.304 -0.832,-3.392 -0.8,-1.12 -2.336,-1.12 -0.736,0 -1.472,0.288 -0.736,0.288 -1.408,0.832 -0.64,0.512 -1.152,1.248 -0.512,0.704 -0.768,1.568 V 0 h -3.52 v -23.36 h 3.52 v 9.984 q 0.96,-1.728 2.592,-2.688 1.664,-0.96 3.616,-0.96 1.568,0 2.56,0.576 1.024,0.544 1.632,1.472 0.608,0.928 0.832,2.176 0.256,1.216 0.256,2.592 z"
         transform="matrix(0.74,0,0,0.74,110.82982,463.63954)"
         style="font-variant-ligatures:none"
         id="path275504" /><path
         d="m 419.632,0.32 q -1.984,0 -3.584,-0.704 -1.568,-0.704 -2.688,-1.888 -1.12,-1.184 -1.728,-2.752 -0.608,-1.6 -0.608,-3.328 0,-1.728 0.608,-3.296 0.608,-1.6 1.728,-2.784 1.152,-1.184 2.72,-1.888 1.6,-0.704 3.552,-0.704 1.952,0 3.52,0.704 1.6,0.704 2.72,1.888 1.152,1.184 1.76,2.784 0.608,1.568 0.608,3.296 0,1.728 -0.608,3.328 -0.608,1.568 -1.76,2.752 -1.12,1.184 -2.72,1.888 -1.568,0.704 -3.52,0.704 z m -4.992,-8.64 q 0,1.216 0.384,2.24 0.384,1.024 1.056,1.792 0.672,0.736 1.568,1.184 0.928,0.416 1.984,0.416 1.056,0 1.952,-0.416 0.928,-0.448 1.6,-1.216 0.672,-0.768 1.056,-1.792 0.384,-1.024 0.384,-2.24 0,-1.184 -0.384,-2.208 -0.384,-1.056 -1.056,-1.824 -0.672,-0.768 -1.6,-1.184 -0.896,-0.448 -1.952,-0.448 -1.024,0 -1.952,0.448 -0.896,0.448 -1.568,1.216 -0.672,0.768 -1.088,1.824 -0.384,1.024 -0.384,2.208 z"
         transform="matrix(0.74,0,0,0.74,110.82982,463.63954)"
         style="font-variant-ligatures:none"
         id="path275506" /><path
         d="m 446.37,0 h -3.52 v -9.376 q 0,-2.368 -0.768,-3.424 -0.736,-1.088 -2.208,-1.088 -0.768,0 -1.536,0.288 -0.768,0.288 -1.44,0.832 -0.672,0.512 -1.216,1.248 -0.512,0.704 -0.8,1.568 V 0 h -3.52 v -16.736 h 3.2 v 3.36 q 0.96,-1.696 2.784,-2.656 1.824,-0.992 4.032,-0.992 1.504,0 2.464,0.544 0.96,0.544 1.504,1.504 0.576,0.928 0.8,2.176 0.224,1.216 0.224,2.592 z"
         transform="matrix(0.74,0,0,0.74,110.82982,463.63954)"
         style="font-variant-ligatures:none"
         id="path275508" /><path
         d="m 467.386,0.32 q -1.92,0 -3.488,-0.896 -1.536,-0.928 -2.432,-2.464 V 0 h -3.104 v -23.36 h 3.52 v 9.792 q 0.992,-1.6 2.464,-2.528 1.504,-0.928 3.52,-0.928 1.664,0 3.04,0.736 1.376,0.704 2.336,1.92 0.992,1.184 1.504,2.784 0.544,1.568 0.544,3.296 0,1.792 -0.608,3.36 -0.608,1.568 -1.664,2.752 -1.056,1.152 -2.528,1.824 -1.44,0.672 -3.104,0.672 z m -0.928,-3.008 q 1.152,0 2.112,-0.448 0.96,-0.48 1.632,-1.248 0.704,-0.768 1.088,-1.76 0.384,-1.024 0.384,-2.144 0,-1.12 -0.384,-2.144 -0.352,-1.056 -1.024,-1.824 -0.64,-0.8 -1.568,-1.28 -0.896,-0.48 -1.984,-0.48 -1.632,0 -2.912,1.056 -1.248,1.056 -1.92,2.56 v 4.416 q 0.192,0.736 0.672,1.344 0.48,0.576 1.12,1.024 0.64,0.448 1.376,0.704 0.736,0.224 1.408,0.224 z"
         transform="matrix(0.74,0,0,0.74,110.82982,463.63954)"
         style="font-variant-ligatures:none"
         id="path275510" /><path
         d="m 482.935,0.32 q -1.216,0 -2.272,-0.384 -1.024,-0.416 -1.792,-1.12 -0.736,-0.704 -1.184,-1.664 -0.416,-0.96 -0.416,-2.08 0,-1.184 0.512,-2.144 0.512,-0.96 1.44,-1.664 0.96,-0.704 2.24,-1.088 1.312,-0.384 2.88,-0.384 1.184,0 2.336,0.224 1.152,0.192 2.08,0.544 v -1.152 q 0,-1.856 -1.056,-2.88 -1.056,-1.056 -3.04,-1.056 -1.344,0 -2.656,0.512 -1.28,0.48 -2.656,1.408 l -1.088,-2.24 q 3.232,-2.176 6.72,-2.176 3.456,0 5.376,1.76 1.92,1.76 1.92,5.056 v 6.048 q 0,1.12 0.928,1.152 V 0 q -0.512,0.096 -0.896,0.128 -0.352,0.032 -0.704,0.032 -1.024,0 -1.6,-0.512 -0.544,-0.512 -0.672,-1.312 l -0.096,-1.056 q -1.12,1.472 -2.784,2.272 -1.632,0.768 -3.52,0.768 z m 0.96,-2.592 q 1.28,0 2.4,-0.448 1.152,-0.48 1.792,-1.312 0.672,-0.576 0.672,-1.216 v -2.208 q -0.896,-0.352 -1.92,-0.544 -0.992,-0.192 -1.952,-0.192 -1.888,0 -3.104,0.832 -1.184,0.8 -1.184,2.144 0,1.248 0.928,2.112 0.928,0.832 2.368,0.832 z"
         transform="matrix(0.74,0,0,0.74,110.82982,463.63954)"
         style="font-variant-ligatures:none"
         id="path275512" /><path
         d="m 502.6295,0.32 q -2.016,0 -4.032,-0.64 -1.984,-0.672 -3.424,-1.888 l 1.408,-2.24 q 1.504,1.088 2.976,1.664 1.472,0.544 3.008,0.544 1.568,0 2.464,-0.608 0.928,-0.608 0.928,-1.728 0,-1.056 -1.024,-1.536 -1.024,-0.48 -3.2,-1.056 -1.568,-0.416 -2.688,-0.8 -1.12,-0.384 -1.824,-0.896 -0.704,-0.512 -1.024,-1.184 -0.32,-0.672 -0.32,-1.632 0,-1.28 0.48,-2.272 0.512,-0.992 1.376,-1.664 0.896,-0.704 2.08,-1.056 1.184,-0.352 2.56,-0.352 1.888,0 3.52,0.576 1.632,0.576 2.912,1.664 l -1.504,2.112 q -2.336,-1.856 -4.96,-1.856 -1.344,0 -2.272,0.576 -0.896,0.544 -0.896,1.76 0,0.512 0.192,0.864 0.192,0.352 0.608,0.608 0.448,0.256 1.12,0.48 0.704,0.192 1.728,0.448 1.696,0.416 2.912,0.832 1.248,0.416 2.048,0.992 0.8,0.544 1.184,1.312 0.384,0.736 0.384,1.792 0,2.4 -1.824,3.808 -1.792,1.376 -4.896,1.376 z"
         transform="matrix(0.74,0,0,0.74,110.82982,463.63954)"
         style="font-variant-ligatures:none"
         id="path275514" /><path
         d="m 520.0085,0.32 q -1.952,0 -3.552,-0.672 -1.6,-0.704 -2.752,-1.888 -1.12,-1.184 -1.76,-2.752 -0.608,-1.568 -0.608,-3.328 0,-1.76 0.608,-3.328 0.64,-1.6 1.76,-2.784 1.152,-1.216 2.752,-1.888 1.6,-0.704 3.584,-0.704 1.952,0 3.52,0.704 1.6,0.704 2.72,1.888 1.12,1.152 1.696,2.72 0.608,1.536 0.608,3.232 0,0.384 -0.032,0.736 -0.032,0.32 -0.064,0.544 h -13.408 q 0.096,1.12 0.512,2.016 0.448,0.896 1.12,1.568 0.704,0.64 1.568,0.992 0.896,0.352 1.856,0.352 0.704,0 1.376,-0.16 0.704,-0.192 1.28,-0.512 0.576,-0.352 1.024,-0.832 0.448,-0.48 0.704,-1.056 l 3.008,0.864 q -0.864,1.888 -2.88,3.104 -1.984,1.184 -4.64,1.184 z m 5.088,-9.952 q -0.096,-1.056 -0.544,-1.952 -0.416,-0.896 -1.088,-1.504 -0.672,-0.64 -1.568,-0.992 -0.896,-0.352 -1.888,-0.352 -0.992,0 -1.888,0.352 -0.864,0.352 -1.536,0.992 -0.672,0.608 -1.088,1.504 -0.416,0.896 -0.512,1.952 z"
         transform="matrix(0.74,0,0,0.74,110.82982,463.63954)"
         style="font-variant-ligatures:none"
         id="path275516" /><path
         d="m 538.303,0.32 q -1.696,0 -3.136,-0.672 -1.44,-0.704 -2.496,-1.888 -1.056,-1.184 -1.664,-2.752 -0.576,-1.6 -0.576,-3.424 0,-1.76 0.544,-3.296 0.576,-1.568 1.568,-2.752 1.024,-1.184 2.368,-1.856 1.376,-0.704 3.008,-0.704 2.016,0 3.552,0.992 1.536,0.96 2.4,2.464 v -9.792 h 3.52 v 19.2 q 0,0.608 0.192,0.864 0.224,0.256 0.768,0.288 V 0 q -0.544,0.096 -0.896,0.128 -0.32,0.032 -0.544,0.032 -1.056,0 -1.728,-0.544 -0.672,-0.544 -0.736,-1.408 l -0.064,-1.248 q -0.928,1.568 -2.528,2.464 -1.6,0.896 -3.552,0.896 z m 0.864,-3.008 q 0.768,0 1.536,-0.256 0.768,-0.256 1.408,-0.704 0.64,-0.448 1.088,-1.056 0.48,-0.608 0.672,-1.312 V -10.4 q -0.288,-0.8 -0.832,-1.472 -0.512,-0.672 -1.184,-1.152 -0.672,-0.48 -1.44,-0.736 -0.736,-0.256 -1.504,-0.256 -1.056,0 -1.952,0.48 -0.864,0.48 -1.504,1.28 -0.64,0.8 -1.024,1.824 -0.352,1.024 -0.352,2.112 0,1.152 0.384,2.176 0.416,1.024 1.12,1.792 0.704,0.768 1.6,1.216 0.928,0.448 1.984,0.448 z"
         transform="matrix(0.74,0,0,0.74,110.82982,463.63954)"
         style="font-variant-ligatures:none"
         id="path275518" /><path
         d="m 559.737,0 v -16.736 h 3.52 V 0 Z m 0,-19.488 v -3.872 h 3.52 v 3.872 z"
         transform="matrix(0.74,0,0,0.74,110.82982,463.63954)"
         style="font-variant-ligatures:none"
         id="path275520" /><path
         d="m 582.495,0 h -3.52 v -9.376 q 0,-2.368 -0.768,-3.424 -0.736,-1.088 -2.208,-1.088 -0.768,0 -1.536,0.288 -0.768,0.288 -1.44,0.832 -0.672,0.512 -1.216,1.248 -0.512,0.704 -0.8,1.568 V 0 h -3.52 v -16.736 h 3.2 v 3.36 q 0.96,-1.696 2.784,-2.656 1.824,-0.992 4.032,-0.992 1.504,0 2.464,0.544 0.96,0.544 1.504,1.504 0.576,0.928 0.8,2.176 0.224,1.216 0.224,2.592 z"
         transform="matrix(0.74,0,0,0.74,110.82982,463.63954)"
         style="font-variant-ligatures:none"
         id="path275522" /><path
         d="m 595.7365,-0.864 q -0.672,0.32 -1.856,0.736 -1.184,0.384 -2.528,0.384 -0.832,0 -1.568,-0.224 -0.736,-0.224 -1.312,-0.672 -0.544,-0.448 -0.864,-1.152 -0.32,-0.736 -0.32,-1.76 v -10.464 h -2.208 v -2.72 h 2.208 v -5.504 h 3.52 v 5.504 h 3.648 v 2.72 h -3.648 v 9.344 q 0.064,0.896 0.544,1.312 0.512,0.384 1.248,0.384 0.736,0 1.408,-0.256 0.672,-0.256 0.992,-0.416 z"
         transform="matrix(0.74,0,0,0.74,110.82982,463.63954)"
         style="font-variant-ligatures:none"
         id="path275524" /><path
         d="m 605.321,0.32 q -1.952,0 -3.552,-0.672 -1.6,-0.704 -2.752,-1.888 -1.12,-1.184 -1.76,-2.752 -0.608,-1.568 -0.608,-3.328 0,-1.76 0.608,-3.328 0.64,-1.6 1.76,-2.784 1.152,-1.216 2.752,-1.888 1.6,-0.704 3.584,-0.704 1.952,0 3.52,0.704 1.6,0.704 2.72,1.888 1.12,1.152 1.696,2.72 0.608,1.536 0.608,3.232 0,0.384 -0.032,0.736 -0.032,0.32 -0.064,0.544 h -13.408 q 0.096,1.12 0.512,2.016 0.448,0.896 1.12,1.568 0.704,0.64 1.568,0.992 0.896,0.352 1.856,0.352 0.704,0 1.376,-0.16 0.704,-0.192 1.28,-0.512 0.576,-0.352 1.024,-0.832 0.448,-0.48 0.704,-1.056 l 3.008,0.864 q -0.864,1.888 -2.88,3.104 -1.984,1.184 -4.64,1.184 z m 5.088,-9.952 q -0.096,-1.056 -0.544,-1.952 -0.416,-0.896 -1.088,-1.504 -0.672,-0.64 -1.568,-0.992 -0.896,-0.352 -1.888,-0.352 -0.992,0 -1.888,0.352 -0.864,0.352 -1.536,0.992 -0.672,0.608 -1.088,1.504 -0.416,0.896 -0.512,1.952 z"
         transform="matrix(0.74,0,0,0.74,110.82982,463.63954)"
         style="font-variant-ligatures:none"
         id="path275526" /><path
         d="m 616.8315,-23.36 h 3.52 v 18.528 q 0,0.928 0.48,1.472 0.48,0.512 1.344,0.512 0.352,0 0.8,-0.128 0.48,-0.128 0.896,-0.288 l 0.512,2.752 q -0.768,0.352 -1.824,0.544 -1.056,0.224 -1.888,0.224 -1.824,0 -2.848,-0.992 -0.992,-0.992 -0.992,-2.816 z"
         transform="matrix(0.74,0,0,0.74,110.82982,463.63954)"
         style="font-variant-ligatures:none"
         id="path275528" /><path
         d="m 626.4565,-23.36 h 3.52 v 18.528 q 0,0.928 0.48,1.472 0.48,0.512 1.344,0.512 0.352,0 0.8,-0.128 0.48,-0.128 0.896,-0.288 l 0.512,2.752 q -0.768,0.352 -1.824,0.544 -1.056,0.224 -1.888,0.224 -1.824,0 -2.848,-0.992 -0.992,-0.992 -0.992,-2.816 z"
         transform="matrix(0.74,0,0,0.74,110.82982,463.63954)"
         style="font-variant-ligatures:none"
         id="path275530" /><path
         d="m 636.0495,0 v -16.736 h 3.52 V 0 Z m 0,-19.488 v -3.872 h 3.52 v 3.872 z"
         transform="matrix(0.74,0,0,0.74,110.82982,463.63954)"
         style="font-variant-ligatures:none"
         id="path275532" /><path
         d="m 650.4235,0.16 q -1.696,0 -3.104,-0.672 -1.408,-0.704 -2.432,-1.888 -0.992,-1.184 -1.568,-2.72 -0.544,-1.536 -0.544,-3.232 0,-1.792 0.576,-3.36 0.576,-1.6 1.6,-2.752 1.024,-1.184 2.432,-1.856 1.44,-0.704 3.168,-0.704 2.016,0 3.52,0.96 1.536,0.96 2.528,2.496 v -3.168 h 3.104 V -0.48 q 0,1.824 -0.672,3.232 -0.672,1.408 -1.888,2.368 -1.184,0.992 -2.816,1.504 -1.632,0.512 -3.52,0.512 -2.784,0 -4.64,-0.96 -1.824,-0.928 -3.072,-2.624 l 1.984,-1.856 q 0.96,1.344 2.464,2.048 1.536,0.704 3.264,0.704 1.088,0 2.048,-0.288 0.992,-0.288 1.728,-0.896 0.736,-0.608 1.152,-1.536 0.448,-0.928 0.448,-2.208 v -2.56 q -0.896,1.536 -2.464,2.368 -1.568,0.832 -3.296,0.832 z m 1.152,-2.848 q 0.8,0 1.536,-0.256 0.736,-0.288 1.344,-0.736 0.64,-0.48 1.088,-1.056 0.448,-0.608 0.64,-1.28 V -10.4 q -0.32,-0.8 -0.832,-1.44 -0.512,-0.672 -1.184,-1.152 -0.64,-0.48 -1.376,-0.736 -0.736,-0.288 -1.472,-0.288 -1.152,0 -2.08,0.512 -0.896,0.48 -1.536,1.312 -0.64,0.8 -0.992,1.824 -0.352,1.024 -0.352,2.112 0,1.152 0.384,2.176 0.416,0.992 1.12,1.76 0.704,0.736 1.632,1.184 0.96,0.448 2.08,0.448 z"
         transform="matrix(0.74,0,0,0.74,110.82982,463.63954)"
         style="font-variant-ligatures:none"
         id="path275534" /><path
         d="m 671.5085,0.32 q -1.952,0 -3.552,-0.672 -1.6,-0.704 -2.752,-1.888 -1.12,-1.184 -1.76,-2.752 -0.608,-1.568 -0.608,-3.328 0,-1.76 0.608,-3.328 0.64,-1.6 1.76,-2.784 1.152,-1.216 2.752,-1.888 1.6,-0.704 3.584,-0.704 1.952,0 3.52,0.704 1.6,0.704 2.72,1.888 1.12,1.152 1.696,2.72 0.608,1.536 0.608,3.232 0,0.384 -0.032,0.736 -0.032,0.32 -0.064,0.544 h -13.408 q 0.096,1.12 0.512,2.016 0.448,0.896 1.12,1.568 0.704,0.64 1.568,0.992 0.896,0.352 1.856,0.352 0.704,0 1.376,-0.16 0.704,-0.192 1.28,-0.512 0.576,-0.352 1.024,-0.832 0.448,-0.48 0.704,-1.056 l 3.008,0.864 q -0.864,1.888 -2.88,3.104 -1.984,1.184 -4.64,1.184 z m 5.088,-9.952 q -0.096,-1.056 -0.544,-1.952 -0.416,-0.896 -1.088,-1.504 -0.672,-0.64 -1.568,-0.992 -0.896,-0.352 -1.888,-0.352 -0.992,0 -1.888,0.352 -0.864,0.352 -1.536,0.992 -0.672,0.608 -1.088,1.504 -0.416,0.896 -0.512,1.952 z"
         transform="matrix(0.74,0,0,0.74,110.82982,463.63954)"
         style="font-variant-ligatures:none"
         id="path275536" /><path
         d="m 697.995,0 h -3.52 v -9.376 q 0,-2.368 -0.768,-3.424 -0.736,-1.088 -2.208,-1.088 -0.768,0 -1.536,0.288 -0.768,0.288 -1.44,0.832 -0.672,0.512 -1.216,1.248 -0.512,0.704 -0.8,1.568 V 0 h -3.52 v -16.736 h 3.2 v 3.36 q 0.96,-1.696 2.784,-2.656 1.824,-0.992 4.032,-0.992 1.504,0 2.464,0.544 0.96,0.544 1.504,1.504 0.576,0.928 0.8,2.176 0.224,1.216 0.224,2.592 z"
         transform="matrix(0.74,0,0,0.74,110.82982,463.63954)"
         style="font-variant-ligatures:none"
         id="path275538" /><path
         d="m 711.2365,-0.864 q -0.672,0.32 -1.856,0.736 -1.184,0.384 -2.528,0.384 -0.832,0 -1.568,-0.224 -0.736,-0.224 -1.312,-0.672 -0.544,-0.448 -0.864,-1.152 -0.32,-0.736 -0.32,-1.76 v -10.464 h -2.208 v -2.72 h 2.208 v -5.504 h 3.52 v 5.504 h 3.648 v 2.72 h -3.648 v 9.344 q 0.064,0.896 0.544,1.312 0.512,0.384 1.248,0.384 0.736,0 1.408,-0.256 0.672,-0.256 0.992,-0.416 z"
         transform="matrix(0.74,0,0,0.74,110.82982,463.63954)"
         style="font-variant-ligatures:none"
         id="path275540" /><path
         d="m 725.9975,0.32 q -1.216,0 -2.272,-0.384 -1.024,-0.416 -1.792,-1.12 -0.736,-0.704 -1.184,-1.664 -0.416,-0.96 -0.416,-2.08 0,-1.184 0.512,-2.144 0.512,-0.96 1.44,-1.664 0.96,-0.704 2.24,-1.088 1.312,-0.384 2.88,-0.384 1.184,0 2.336,0.224 1.152,0.192 2.08,0.544 v -1.152 q 0,-1.856 -1.056,-2.88 -1.056,-1.056 -3.04,-1.056 -1.344,0 -2.656,0.512 -1.28,0.48 -2.656,1.408 l -1.088,-2.24 q 3.232,-2.176 6.72,-2.176 3.456,0 5.376,1.76 1.92,1.76 1.92,5.056 v 6.048 q 0,1.12 0.928,1.152 V 0 q -0.512,0.096 -0.896,0.128 -0.352,0.032 -0.704,0.032 -1.024,0 -1.6,-0.512 -0.544,-0.512 -0.672,-1.312 l -0.096,-1.056 q -1.12,1.472 -2.784,2.272 -1.632,0.768 -3.52,0.768 z m 0.96,-2.592 q 1.28,0 2.4,-0.448 1.152,-0.48 1.792,-1.312 0.672,-0.576 0.672,-1.216 v -2.208 q -0.896,-0.352 -1.92,-0.544 -0.992,-0.192 -1.952,-0.192 -1.888,0 -3.104,0.832 -1.184,0.8 -1.184,2.144 0,1.248 0.928,2.112 0.928,0.832 2.368,0.832 z"
         transform="matrix(0.74,0,0,0.74,110.82982,463.63954)"
         style="font-variant-ligatures:none"
         id="path275542" /><path
         d="m 749.116,0.32 q -2.016,0 -3.552,-0.96 -1.536,-0.96 -2.432,-2.496 v 9.952 h -3.52 v -23.552 h 3.104 v 3.008 q 0.96,-1.504 2.464,-2.4 1.536,-0.896 3.456,-0.896 1.728,0 3.168,0.704 1.44,0.704 2.496,1.888 1.056,1.184 1.632,2.752 0.608,1.568 0.608,3.296 0,1.824 -0.544,3.424 -0.544,1.568 -1.536,2.752 -0.992,1.152 -2.368,1.856 -1.344,0.672 -2.976,0.672 z m -1.152,-3.008 q 1.12,0 2.016,-0.48 0.928,-0.48 1.568,-1.28 0.672,-0.8 1.024,-1.824 0.352,-1.024 0.352,-2.112 0,-1.152 -0.416,-2.176 -0.384,-1.024 -1.088,-1.792 -0.672,-0.768 -1.632,-1.216 -0.96,-0.448 -2.08,-0.448 -0.672,0 -1.408,0.256 -0.736,0.256 -1.376,0.704 -0.64,0.448 -1.12,1.056 -0.48,0.576 -0.672,1.28 v 4.384 q 0.32,0.768 0.832,1.44 0.512,0.672 1.12,1.152 0.64,0.48 1.376,0.768 0.736,0.288 1.504,0.288 z"
         transform="matrix(0.74,0,0,0.74,110.82982,463.63954)"
         style="font-variant-ligatures:none"
         id="path275544" /><path
         d="m 769.241,0.32 q -2.016,0 -3.552,-0.96 -1.536,-0.96 -2.432,-2.496 v 9.952 h -3.52 v -23.552 h 3.104 v 3.008 q 0.96,-1.504 2.464,-2.4 1.536,-0.896 3.456,-0.896 1.728,0 3.168,0.704 1.44,0.704 2.496,1.888 1.056,1.184 1.632,2.752 0.608,1.568 0.608,3.296 0,1.824 -0.544,3.424 -0.544,1.568 -1.536,2.752 -0.992,1.152 -2.368,1.856 -1.344,0.672 -2.976,0.672 z m -1.152,-3.008 q 1.12,0 2.016,-0.48 0.928,-0.48 1.568,-1.28 0.672,-0.8 1.024,-1.824 0.352,-1.024 0.352,-2.112 0,-1.152 -0.416,-2.176 -0.384,-1.024 -1.088,-1.792 -0.672,-0.768 -1.632,-1.216 -0.96,-0.448 -2.08,-0.448 -0.672,0 -1.408,0.256 -0.736,0.256 -1.376,0.704 -0.64,0.448 -1.12,1.056 -0.48,0.576 -0.672,1.28 v 4.384 q 0.32,0.768 0.832,1.44 0.512,0.672 1.12,1.152 0.64,0.48 1.376,0.768 0.736,0.288 1.504,0.288 z"
         transform="matrix(0.74,0,0,0.74,110.82982,463.63954)"
         style="font-variant-ligatures:none"
         id="path275546" /><path
         d="m 785.942,0.32 q -2.016,0 -4.032,-0.64 -1.984,-0.672 -3.424,-1.888 l 1.408,-2.24 q 1.504,1.088 2.976,1.664 1.472,0.544 3.008,0.544 1.568,0 2.464,-0.608 0.928,-0.608 0.928,-1.728 0,-1.056 -1.024,-1.536 -1.024,-0.48 -3.2,-1.056 -1.568,-0.416 -2.688,-0.8 -1.12,-0.384 -1.824,-0.896 -0.704,-0.512 -1.024,-1.184 -0.32,-0.672 -0.32,-1.632 0,-1.28 0.48,-2.272 0.512,-0.992 1.376,-1.664 0.896,-0.704 2.08,-1.056 1.184,-0.352 2.56,-0.352 1.888,0 3.52,0.576 1.632,0.576 2.912,1.664 l -1.504,2.112 q -2.336,-1.856 -4.96,-1.856 -1.344,0 -2.272,0.576 -0.896,0.544 -0.896,1.76 0,0.512 0.192,0.864 0.192,0.352 0.608,0.608 0.448,0.256 1.12,0.48 0.704,0.192 1.728,0.448 1.696,0.416 2.912,0.832 1.248,0.416 2.048,0.992 0.8,0.544 1.184,1.312 0.384,0.736 0.384,1.792 0,2.4 -1.824,3.808 -1.792,1.376 -4.896,1.376 z"
         transform="matrix(0.74,0,0,0.74,110.82982,463.63954)"
         style="font-variant-ligatures:none"
         id="path275548" /><path
         d="m 795.577,0 v -4.096 h 2.912 V 0 Z"
         transform="matrix(0.74,0,0,0.74,110.82982,463.63954)"
         style="font-variant-ligatures:none"
         id="path275550" /></g></g></svg>