<?xml version="1.0" encoding="UTF-8" standalone="no"?>
<svg
   xmlns:dc="http://purl.org/dc/elements/1.1/"
   xmlns:cc="http://creativecommons.org/ns#"
   xmlns:rdf="http://www.w3.org/1999/02/22-rdf-syntax-ns#"
   xmlns:svg="http://www.w3.org/2000/svg"
   xmlns="http://www.w3.org/2000/svg"
   id="svg4"
   xml:space="preserve"
   viewBox="0 0 1024 768"
   y="0px"
   x="0px"
   version="1.1"><metadata
     id="metadata10"><rdf:RDF><cc:Work
         rdf:about=""><dc:format>image/svg+xml</dc:format><dc:type
           rdf:resource="http://purl.org/dc/dcmitype/StillImage" /></cc:Work></rdf:RDF></metadata><defs
     id="defs8" /><path
     id="path2"
     d="m276.84375 269.74609c-33.72055 0.005-61.75192 0.03325-62.29297 0.06055-0.54041 0.0273-1.36857 0.0812-1.83984 0.12109-0.47064 0.04-1.32641 0.1294-1.90235 0.19727-0.57529 0.0679-1.51781 0.19636-2.09375 0.28516-0.57529 0.0888-1.54543 0.26103-2.15625 0.38281-0.61018 0.12179-1.58032 0.33438-2.15625 0.47265s-1.5945 0.40869-2.26367 0.59961c-0.66917 0.19155-1.76178 0.53402-2.42969 0.76172-0.66726 0.22771-1.74834 0.62266-2.40039 0.87891-0.65141 0.25689-1.62692 0.66058-2.16797 0.89844-0.54041 0.23722-1.63903 0.76334-2.4414 1.16992-0.80237 0.40657-1.92993 1.01139-2.50586 1.34375-0.5753 0.33237-1.33083 0.78249-1.67969 1.00195-0.34886 0.21883-1.05322 0.67828-1.56445 1.01953-0.51124 0.34061-1.25264 0.85593-1.64844 1.14453-0.39579 0.2886-1.03422 0.7683-1.41797 1.06641-0.38374 0.29812-1.04035 0.82561-1.45898 1.17383-0.41863 0.34759-1.06175 0.90327-1.42774 1.23437-0.36598 0.3311-1.02259 0.94534-1.45898 1.36524-0.43575 0.42053-1.16367 1.15049-1.61719 1.62305-0.45351 0.47253-1.14981 1.2294-1.54687 1.68164-0.3977 0.45288-1.10006 1.29321-1.56055 1.86914-0.46113 0.5753-1.11911 1.43107-1.46289 1.90234-0.34378 0.47064-0.95734 1.35598-1.36328 1.9668-0.40594 0.61018-1.00132 1.54864-1.32227 2.08398-0.32158 0.53534-0.79795 1.36351-1.06054 1.83984-0.2626 0.47636-0.77318 1.46467-1.13282 2.19727-0.359 0.7326-0.82525 1.73367-1.03711 2.22461-0.21248 0.49094-0.57038 1.36083-0.79492 1.93359-0.22454 0.5734-0.59656 1.59333-0.82617 2.26758-0.22961 0.67424-0.57407 1.77419-0.76562 2.44336-0.19094 0.66917-0.46071 1.68579-0.59961 2.26172-0.13891 0.5753-0.35151 1.54739-0.47266 2.1582-0.12115 0.61019-0.29401 1.58031-0.38281 2.15625-0.0888 0.57529-0.21666 1.51587-0.28516 2.0918-0.0685 0.5753-0.15594 1.41758-0.19336 1.87109-0.0374 0.45352-0.0966 1.38192-0.13086 2.0625-0.04 0.78842-0.06054 23.38922-0.06054 62.34961 0 38.96038 0.02064 61.56315 0.06054 62.35157 0.0343 0.67995 0.0934 1.60702 0.13086 2.06054 0.0374 0.45351 0.12486 1.29517 0.19336 1.8711 0.0685 0.5753 0.19636 1.51781 0.28516 2.09375 0.0888 0.57529 0.26166 1.54543 0.38281 2.15625 0.12115 0.61018 0.33375 1.58032 0.47266 2.15625 0.1389 0.57593 0.40868 1.59449 0.59961 2.26367 0.19155 0.66917 0.53469 1.76715 0.76367 2.4414 0.22897 0.67425 0.65613 1.826 0.94726 2.5586 0.29114 0.7326 0.77489 1.87428 1.07617 2.53711 0.30129 0.66283 0.80723 1.70363 1.125 2.31445 0.31715 0.61019 0.84116 1.56683 1.16211 2.125 0.32159 0.55817 0.76296 1.29958 0.98243 1.64844 0.21882 0.34885 0.67633 1.05321 1.01757 1.56445 0.34062 0.51123 0.85593 1.25264 1.14453 1.64844 0.28861 0.39579 0.7683 1.03422 1.06641 1.41797 0.29812 0.38374 0.82619 1.03703 1.17188 1.45312 0.34632 0.41545 0.89736 1.05795 1.22656 1.42774 0.32919 0.36915 1.16004 1.23836 1.8457 1.93164 0.68566 0.6939 1.66181 1.63711 2.16797 2.0957 0.50616 0.45858 1.26106 1.11859 1.67969 1.4668 0.41863 0.34823 1.07524 0.87766 1.45898 1.17578 0.38375 0.29811 1.0148 0.77181 1.40235 1.05469 0.38755 0.2829 1.12895 0.79821 1.64843 1.14453 0.51948 0.34696 1.28841 0.84478 1.70703 1.10547 0.41864 0.26132 1.18961 0.71813 1.7129 1.01562 0.52328 0.29747 1.42275 0.78461 1.99804 1.08399 0.57593 0.29939 1.58717 0.79184 2.25 1.09375 0.66283 0.30129 1.80451 0.78567 2.53711 1.07617 0.7326 0.29051 1.84667 0.70358 2.47461 0.91797 0.62794 0.21438 1.67413 0.54404 2.32617 0.73242 0.65205 0.18902 1.70893 0.47224 2.34766 0.6289 0.63873 0.15604 1.6613 0.38277 2.27148 0.50391 0.61082 0.12115 1.58096 0.29337 2.15625 0.38281 0.57594 0.0888 1.40409 0.20453 1.83985 0.25782 0.43639 0.0533 1.26454 0.14003 1.83984 0.1914 0.57593 0.0513 1.62817 0.12268 2.33985 0.1582 0.85945 0.0431 21.78848 0.06446 62.35742 0.06446 40.33996 0 61.50109-0.02195 62.35547-0.06446 0.71167-0.0355 1.79411-0.10884 2.40429-0.1621 0.61082-0.054 1.63815-0.16765 2.28321-0.25391 0.64571-0.0862 1.67302-0.24236 2.2832-0.34766 0.61082-0.1053 1.68387-0.31921 2.38476-0.47461s1.85533-0.44066 2.56446-0.63476c0.70976-0.19472 1.86225-0.54055 2.5625-0.76953 0.70025-0.22835 1.7585-0.60107 2.35156-0.82813 0.59306-0.22708 1.57927-0.62666 2.18945-0.88672 0.61082-0.26006 1.70881-0.76862 2.44141-1.1289s1.7323-0.87365 2.2207-1.14258c0.4884-0.26894 1.3146-0.7479 1.83789-1.0625 0.52329-0.31397 1.45232-0.90397 2.0625-1.31055 0.61082-0.40657 1.49616-1.0195 1.9668-1.36328 0.47127-0.34379 1.32704-1.00175 1.90234-1.46289 0.57593-0.46048 1.4169-1.16285 1.86914-1.56055 0.45225-0.39706 1.22322-1.1088 1.7129-1.58007 0.48966-0.47126 1.23113-1.21268 1.65039-1.64844 0.41863-0.43575 1.00726-1.0628 1.30664-1.39453 0.29875-0.33173 0.84099-0.96074 1.20507-1.39649 0.36471-0.43639 0.90759-1.10649 1.20508-1.49023 0.29747-0.38375 0.77586-1.02218 1.06446-1.41797 0.2886-0.3958 0.80587-1.13721 1.14648-1.64844 0.34125-0.51124 0.83305-1.27278 1.09375-1.6914 0.26068-0.41864 0.72626-1.20374 1.03516-1.74415 0.30889-0.54105 0.86394-1.58185 1.23437-2.31445 0.37106-0.7326 0.90725-1.86079 1.19141-2.50586 0.28415-0.64507 0.70398-1.65552 0.93359-2.24414s0.60099-1.61055 0.82617-2.27148c0.22579-0.66093 0.56625-1.7488 0.75782-2.41797 0.19091-0.66917 0.46132-1.68773 0.59961-2.26367 0.13826-0.57593 0.35086-1.54607 0.47265-2.15625 0.12178-0.61082 0.29337-1.58096 0.38281-2.15625 0.0888-0.57594 0.20648-1.4041 0.25977-1.83985 0.0533-0.43639 0.14004-1.26455 0.19141-1.83984 0.0513-0.57594 0.12073-1.62818 0.15625-2.33985 0.0431-0.85944 0.0664-21.78848 0.0664-62.35742s-0.0233-61.49601-0.0664-62.35547c-0.0355-0.71166-0.10486-1.76649-0.15625-2.34179-0.0513-0.57593-0.13814-1.40214-0.19141-1.83789-0.0533-0.43639-0.17097-1.26455-0.25977-1.83985-0.0894-0.57593-0.26103-1.54607-0.38281-2.15625-0.12179-0.61082-0.3344-1.5829-0.47265-2.1582-0.13829-0.57593-0.4087-1.59255-0.59961-2.26172-0.19157-0.66917-0.53471-1.76911-0.76368-2.44336-0.22898-0.67425-0.65418-1.82404-0.94531-2.55664-0.29114-0.7326-0.77683-1.87428-1.07812-2.53711-0.30129-0.66282-0.79306-1.67665-1.0918-2.25195-0.29939-0.57593-0.78651-1.47477-1.08398-1.99805-0.29812-0.52329-0.75495-1.29427-1.01563-1.71289-0.26006-0.41863-0.7525-1.18016-1.09375-1.69141-0.34061-0.51123-0.85788-1.25263-1.14648-1.64843-0.2886-0.39579-0.7683-1.03228-1.06641-1.41602-0.29812-0.38374-0.82755-1.04035-1.17578-1.45898-0.34822-0.41863-0.91473-1.07524-1.25977-1.45899-0.34442-0.38374-1.14432-1.22464-1.77734-1.86718-0.63302-0.64316-1.5211-1.50974-1.97461-1.92774-0.45351-0.41736-1.26013-1.12241-1.79102-1.5664-0.5309-0.44401-1.37317-1.11885-1.87109-1.50196-0.49791-0.38305-1.33413-0.99862-1.85742-1.36523-0.52329-0.36726-1.42212-0.96737-1.99805-1.33399-0.5753-0.36725-1.51988-0.93911-2.09961-1.27148-0.57975-0.33236-1.57945-0.87663-2.2207-1.20899-0.64127-0.33237-1.66726-0.83091-2.28125-1.10937-0.61399-0.27845-1.70044-0.73996-2.41211-1.02539-0.71166-0.28543-2.00677-0.7577-2.87891-1.04883-0.87215-0.29114-2.16918-0.68677-2.88086-0.88086-0.7123-0.1941-1.86747-0.48132-2.56836-0.63672s-1.77394-0.36736-2.38476-0.47265c-0.61018-0.10529-1.63749-0.26335-2.2832-0.34961-0.64506-0.0863-1.67239-0.2-2.28321-0.25391-0.61018-0.0533-1.69262-0.12659-2.40429-0.16211-0.85755-0.0425-21.96164-0.06109-62.60352-0.05469zm537.38281 29.23829c-1.87416 0-3.37354 0.62549-4.49804 1.75-1.1245 1.1245-1.625 2.62382-1.625 4.37304v85.33594c0 1.87417 0.5005 3.37355 1.625 4.49805 1.1245 1.12449 2.62388 1.625 4.49804 1.625 1.74922 0 3.24855-0.50051 4.37305-1.625 1.1245-1.1245 1.74805-2.62388 1.74805-4.49805v-19.11524l6.24804-5.49804 23.74024 29.36133c1.1245 1.49933 2.62387 2.25 4.49804 2.25 1.37438 0 2.74861-0.50045 3.99805-1.5 1.49933-1.24944 2.24805-2.74888 2.24805-4.62305 0-1.49933-0.50039-2.7485-1.375-3.74805l-24.23828-29.73633 22.99023-20.49023c1.24944-0.99955 1.99805-2.49884 1.99805-4.24805 0-1.49933-0.6235-2.7505-1.62305-3.875-1.1245-1.24944-2.49883-1.99804-4.24805-1.99804-1.49933 0-2.87545 0.62545-3.875 1.625l-30.36132 27.11132v-50.85156c0-1.74922-0.62355-3.24857-1.74805-4.37304-1.1245-1.12451-2.62383-1.75001-4.37305-1.75zm-183.49414 27.36328c-10.49532 0-19.36663 3.74938-26.86328 11.12109-7.37171 7.37171-10.99609 16.24101-10.99609 26.73633v26.36328c0 1.74922 0.50056 3.12355 1.75 4.24805 1.1245 1.24944 2.49882 1.75 4.24804 1.75 1.62428 0 2.99855-0.50056 4.12305-1.75 1.24944-1.1245 1.875-2.49883 1.875-4.24805v-26.36328c0-7.12182 2.49832-13.24247 7.49609-18.24024 5.12271-5.12271 11.24537-7.62304 18.36719-7.62304 1.62427 0 2.99861-0.62355 4.24805-1.74805 1.1245-1.24944 1.74805-2.62377 1.74805-4.24805 0-1.62427-0.62355-3.12355-1.74805-4.24804-1.24944-1.1245-2.62378-1.75-4.24805-1.75zm-351.13476 0.49804l57.52929 0.00782 0.41211 0.19726c0.22707 0.10847 0.53724 0.32307 0.68946 0.47656 0.15287 0.15287 0.36614 0.46434 0.4746 0.69141l0.19922 0.41211v29.68359l-0.17773 0.38086c-0.0976 0.20932-0.3224 0.52821-0.5 0.70899-0.19093 0.19409-0.48196 0.40189-0.71094 0.50781l-0.38672 0.17773h-115.31445l-0.38672-0.17773c-0.22898-0.10592-0.52002-0.31372-0.71094-0.50781-0.1776-0.18078-0.40232-0.49967-0.5-0.70899l-0.17773-0.38086v-29.68359l0.17773-0.38086c0.0977-0.20931 0.31229-0.51878 0.47657-0.6875 0.16364-0.16872 0.4321-0.37594 0.59765-0.46094s0.40777-0.17984 0.53906-0.21094c0.13766-0.0323 24.52661-0.05062 57.76954-0.04492zm399.64648 0.87696c-9.49576 0-17.74324 3.49715-24.49023 10.24414s-10.11914 14.86952-10.11914 24.49023c0 9.6207 3.37215 17.7413 10.11914 24.48828 6.74699 6.74699 14.99447 10.1211 24.49023 10.1211 8.62115 0 16.24118-2.74861 22.73828-8.3711v2.37305c0 1.74922 0.50056 3.12355 1.75 4.24805 1.1245 1.24944 2.49883 1.75 4.24805 1.75 1.62427 0 2.99861-0.50056 4.24805-1.75 1.1245-1.1245 1.75-2.49883 1.75-4.24805v-28.61133c0-9.62071-3.37416-17.74324-10.2461-24.49023-6.74698-6.74699-14.86758-10.24414-24.48828-10.24414zm84.05859 0c-6.49709 0-12.36946 1.49937-17.49218 4.49804-5.24765 2.99866-9.24542 7.12149-12.11914 12.36914-2.87371 5.24766-4.24805 11.24514-4.24805 17.86719 0 6.4971 1.37439 12.49453 4.37305 17.74219 2.99866 5.24765 7.12148 9.37048 12.36914 12.36914 5.24765 2.99867 11.12013 4.49805 17.74218 4.49805 8.99598 0 16.49291-2.74861 22.49024-8.3711 0.99955-0.99955 1.5-2.1236 1.5-3.37304 0-1.62427-0.87567-3.12367-2.375-4.49805-0.99956-0.74967-2.12356-1.125-3.24805-1.125-1.49933 0-3.12373 0.6255-4.62304 1.75-3.49844 2.99866-8.12166 4.37305-13.74415 4.37305-4.37305 0-8.24564-1.0009-11.61914-3-3.37349-1.99911-5.99693-4.74766-7.87109-8.2461-1.87417-3.49844-2.75-7.62115-2.75-12.11914 0-6.99688 1.99983-12.74408 5.99805-16.99219 3.99821-4.2481 9.12009-6.49804 15.61718-6.49804 3.12361 0 5.87416 0.62545 8.37305 1.625 2.49888 0.99955 4.74704 2.62405 6.8711 4.87304 1.24944 1.49933 2.87394 2.24805 4.87304 2.24805 0.99956 0 1.99844-0.25028 2.87305-0.875 1.74922-1.24944 2.75-2.74888 2.75-4.62305 0-1.24944-0.50033-2.24848-1.25-3.24804-6.4971-7.49665-14.74459-11.24414-24.49024-11.24414zm-287.61328 0.125c-9.62071 0-17.74129 3.37215-24.48828 10.11914s-10.12109 14.99447-10.12109 24.49023v57.47461c0 1.74922 0.50056 3.12355 1.75 4.24805 1.1245 1.24945 2.49884 1.74804 4.24804 1.74804 1.62428 0 2.99855-0.49859 4.12305-1.74804 1.24944-1.1245 1.87305-2.49883 1.87305-4.24805v-31.23633c6.37216 5.62249 13.99408 8.4961 22.61523 8.4961 9.6207 0 17.74326-3.37411 24.49024-10.1211 6.74699-6.87193 10.24414-14.99258 10.24414-24.61328 0-9.49576-3.49715-17.74324-10.24414-24.49023-6.74698-6.74699-14.86954-10.11914-24.49024-10.11914zm45.70899 0.375c-0.99956 0-1.75033 0.25011-2.5 0.5-1.1245 0.49977-1.99833 1.24843-2.62305 2.12304-0.74966 0.99955-1 1.9985-1 2.99805s0.12522 1.87533 0.625 2.625l28.11328 53.35156-12.49609 28.11133c-0.49978 0.99956-0.74805 1.9985-0.74805 2.99805 0 2.249 1.24917 3.87348 3.74805 4.87304 1.1245 0.49977 2.12345 0.75 2.99804 0.75 2.24901 0 3.87349-1.24921 4.87305-3.87304l38.23242-85.96094c0.49977-1.1245 0.75-2.12539 0.75-3 0-2.249-1.37415-3.87153-3.87304-4.87109-0.99955-0.37483-1.9985-0.625-2.99805-0.625-2.249 0-3.8735 1.2491-4.87305 3.62304l-20.11718 45.35352-22.86329-45.47852c-1.24944-2.249-2.99905-3.49804-5.24804-3.49804zm-296.63672 3.35742v23.78515h109.41601v-23.78515h-54.70703-54.70898zm50.07812 4.7793l24.22852 0.00976 0.41406 0.19727c0.22644 0.10847 0.53722 0.32111 0.68946 0.47461 0.15287 0.15286 0.36615 0.46496 0.4746 0.6914l0.19922 0.41211v10.65625l-0.17773 0.38086c-0.0976 0.20931-0.3224 0.52823-0.5 0.70898-0.19092 0.1941-0.48196 0.40189-0.71094 0.50782l-0.38867 0.17773h-48.71289l-0.38672-0.17773c-0.22898-0.10592-0.52002-0.31371-0.71094-0.50782-0.1776-0.18076-0.40232-0.49966-0.5-0.70898l-0.17773-0.38086v-10.65625l0.17773-0.38086c0.0977-0.20931 0.31229-0.51683 0.47657-0.68555 0.16363-0.16872 0.4321-0.3779 0.59765-0.46289 0.16555-0.085 0.40777-0.1779 0.53906-0.20898 0.13638-0.0324 10.53476-0.05258 24.46875-0.04687zm-37.96289 0.00781c0.64571 0.0184 1.00831 0.063 1.47071 0.18164 0.33744 0.0869 0.84137 0.25776 1.12109 0.3789 0.27972 0.12115 0.76073 0.38419 1.06836 0.58399 0.31017 0.20233 0.81514 0.62177 1.13672 0.94336 0.32158 0.32158 0.74102 0.82656 0.94336 1.13672 0.1998 0.30763 0.46088 0.78864 0.58203 1.06836s0.2947 0.78365 0.38476 1.12109c0.14589 0.54548 0.16407 0.73173 0.16407 1.69141 0 0.95967-0.0182 1.14591-0.16407 1.6914-0.0901 0.33744-0.26361 0.84333-0.38476 1.12305s-0.38223 0.75879-0.58203 1.06641c-0.20234 0.31017-0.62178 0.81709-0.94336 1.13867s-0.82655 0.73906-1.13672 0.9414c-0.30763 0.1998-0.78864 0.46284-1.06836 0.58399s-0.78365 0.29337-1.12109 0.38281c-0.53724 0.14334-0.74298 0.1648-1.66016 0.16797-0.87722 0.003-1.13742-0.0194-1.60742-0.13672-0.3089-0.0774-0.82833-0.25166-1.15625-0.38867-0.32793-0.13701-0.84662-0.41216-1.15235-0.61133-0.30762-0.1998-0.81508-0.61914-1.13476-0.93945-0.32158-0.32158-0.73907-0.8285-0.94141-1.13867-0.1998-0.30762-0.46283-0.78669-0.58398-1.06641s-0.2947-0.78561-0.38477-1.12305c-0.14588-0.54549-0.16406-0.73173-0.16406-1.6914 0-0.95968 0.0182-1.14593 0.16406-1.69141 0.0901-0.33744 0.26362-0.84137 0.38477-1.12109s0.38418-0.76073 0.58398-1.06836c0.20234-0.31016 0.61983-0.81514 0.94141-1.13672 0.31778-0.31841 0.82298-0.73755 1.12109-0.93164 0.29875-0.19409 0.77038-0.45375 1.04883-0.57617 0.27845-0.12241 0.72115-0.28121 0.98438-0.35352 0.26322-0.0723 0.64932-0.15907 0.85546-0.19141 0.20678-0.033 0.75983-0.04785 1.23047-0.03515zm442.36719 3.34961c6.24721 0 11.61914 2.25005 15.99219 6.74804 4.49799 4.37305 6.74609 9.74498 6.74609 15.99219s-2.2481 11.61914-6.74609 15.99219c-4.37305 4.49799-9.74498 6.62305-15.99219 6.62305-6.24722 0-11.6211-2.12506-15.99414-6.62305-4.498-4.37305-6.62109-9.74498-6.62109-15.99219s2.12309-11.61914 6.62109-15.99219c4.37304-4.49799 9.74692-6.74804 15.99414-6.74804zm-203.55469 0.125c6.24721 0 11.62109 2.24999 15.99414 6.62304 4.49799 4.49799 6.7461 9.74498 6.7461 15.99219s-2.24811 11.6192-6.7461 16.11719c-4.37305 4.37305-9.74693 6.62305-15.99414 6.62305s-11.61913-2.25-15.99218-6.62305c-4.49799-4.49799-6.62305-9.86998-6.62305-16.11719 0-3.99822 1.0009-7.87265 3-11.37109 1.99911-3.49843 4.74766-6.247 8.24609-8.2461 3.49844-1.99911 7.24598-2.99804 11.36914-2.99804zm-222.38476 1.2539v4.75586h42.81445v-4.75586h-21.40625-21.4082zm-16.66992 0.00196c-0.19727 0.002-0.52012 0.0544-0.71485 0.11718-0.19536 0.0622-0.48806 0.20679-0.65234 0.32032-0.16428 0.11291-0.39707 0.33762-0.51758 0.5-0.11988 0.16301-0.2753 0.4772-0.3457 0.69922-0.0698 0.22133-0.12696 0.5537-0.12696 0.73828s0.0572 0.51691 0.12696 0.73828c0.0704 0.222 0.22582 0.53816 0.3457 0.70117 0.12051 0.16238 0.35199 0.3871 0.51562 0.5 0.16429 0.11291 0.46837 0.25819 0.67579 0.32227 0.20741 0.0647 0.52899 0.11718 0.71484 0.11718 0.18584 0 0.50548-0.05241 0.71289-0.11718 0.20741-0.0641 0.5115-0.20937 0.67578-0.32227 0.16365-0.1129 0.39707-0.33762 0.51758-0.5 0.11988-0.16301 0.2753-0.47917 0.3457-0.70117 0.0698-0.22137 0.125-0.5537 0.125-0.73828s-0.0552-0.51693-0.125-0.73828c-0.0704-0.222-0.22582-0.53621-0.3457-0.69922-0.12051-0.16238-0.35393-0.3871-0.51758-0.5-0.16428-0.11291-0.46837-0.25821-0.67578-0.32227-0.20741-0.0647-0.53711-0.11714-0.73437-0.11523zm71.51953 0.02539c0.32031 0.0171 0.56924 0.0754 0.82422 0.1914 0.20108 0.092 0.51454 0.31264 0.69531 0.49024 0.19599 0.19346 0.39993 0.47943 0.50586 0.71093 0.15223 0.33173 0.17709 0.46737 0.17773 0.95704 0.00062 0.49157-0.0242 0.62324-0.17578 0.95117-0.0971 0.20931-0.3224 0.53017-0.5 0.71094-0.19346 0.196-0.47942 0.39797-0.71094 0.5039-0.33173 0.15223-0.46736 0.17906-0.95703 0.17969-0.49157 0.00064-0.62519-0.0242-0.95312-0.17578-0.20931-0.097-0.52822-0.3224-0.70899-0.5-0.19599-0.19346-0.39993-0.47942-0.50586-0.71094-0.15223-0.33173-0.17709-0.46931-0.17773-0.95898-0.00062-0.49157 0.0235-0.62325 0.17578-0.95118 0.0971-0.20931 0.31033-0.51878 0.47461-0.6875 0.16364-0.16872 0.43405-0.37593 0.59961-0.46093 0.16555-0.085 0.40777-0.1799 0.53906-0.21289 0.13067-0.033 0.44483-0.05041 0.69727-0.03711zm9.51562 0c0.32031 0.0171 0.56924 0.0754 0.82422 0.1914 0.20108 0.092 0.51259 0.31264 0.69336 0.49024 0.19599 0.19346 0.39994 0.47943 0.50586 0.71093 0.15223 0.33173 0.17709 0.46737 0.17773 0.95704 0.00063 0.49157-0.0242 0.62324-0.17578 0.95117-0.0971 0.20931-0.3224 0.53017-0.5 0.71094-0.19345 0.196-0.47942 0.39797-0.71093 0.5039-0.33173 0.15223-0.46737 0.17906-0.95704 0.17969-0.49157 0.00064-0.62324-0.0242-0.95117-0.17578-0.20931-0.097-0.52821-0.3224-0.70898-0.5-0.19599-0.19346-0.39993-0.47942-0.50586-0.71094-0.15222-0.33173-0.17711-0.46931-0.17774-0.95898-0.00063-0.49157 0.02359-0.62325 0.17579-0.95118 0.0971-0.20931 0.31032-0.51878 0.4746-0.6875 0.16365-0.16872 0.43405-0.37593 0.59961-0.46093 0.16555-0.085 0.40778-0.1799 0.53907-0.21289 0.13067-0.033 0.44482-0.05041 0.69726-0.03711zm9.51367 0c0.32031 0.0171 0.56924 0.0754 0.82422 0.1914 0.20108 0.092 0.51258 0.31264 0.69336 0.49024 0.19599 0.19346 0.39994 0.47943 0.50586 0.71093 0.15223 0.33173 0.1771 0.46737 0.17774 0.95704 0.00063 0.49157-0.0242 0.62324-0.17579 0.95117-0.0971 0.20931-0.32044 0.53017-0.49804 0.71094-0.19345 0.196-0.47942 0.39797-0.71094 0.5039-0.33173 0.15223-0.46931 0.17906-0.95898 0.17969-0.49157 0.00064-0.62325-0.0242-0.95118-0.17578-0.20931-0.097-0.52821-0.3224-0.70898-0.5-0.19599-0.19346-0.39994-0.47942-0.50586-0.71094-0.15223-0.33173-0.17709-0.46931-0.17773-0.95898-0.00063-0.49157 0.0236-0.62325 0.17578-0.95118 0.0971-0.20931 0.31033-0.51878 0.47461-0.6875 0.16365-0.16872 0.43406-0.37593 0.59961-0.46093s0.40777-0.1799 0.53906-0.21289c0.13067-0.033 0.44482-0.05041 0.69726-0.03711zm-47.58593 28.53515v0.00196l57.52929 0.00781 0.41211 0.19726c0.22707 0.10847 0.53724 0.32307 0.68946 0.47657 0.15287 0.15286 0.36614 0.46238 0.4746 0.68945l0.19922 0.41406v29.6836l-0.19922 0.41211c-0.10847 0.22644-0.32173 0.53854-0.4746 0.6914-0.15222 0.1535-0.46239 0.36615-0.68946 0.47461l-0.41211 0.19727h-115.31445l-0.38672-0.17774c-0.22898-0.10586-0.52002-0.31372-0.71094-0.50781-0.1776-0.18077-0.40232-0.49967-0.5-0.70898l-0.17773-0.38086v-29.6836l0.17773-0.38086c0.0977-0.20931 0.31229-0.51878 0.47657-0.6875 0.16364-0.16872 0.4321-0.37593 0.59765-0.46093s0.40777-0.17986 0.53906-0.21094c0.13766-0.0324 24.52661-0.05258 57.76954-0.04688zm-54.83594 4.73633v23.78516h109.41601v-23.78516h-54.70703-54.70898zm50.07812 4.7793l24.22852 0.00976 0.41406 0.19727c0.22644 0.10847 0.53722 0.32111 0.68946 0.47461 0.15287 0.15286 0.36615 0.46432 0.4746 0.69141l0.19922 0.4121v10.65625l-0.19922 0.41211c-0.10849 0.22643-0.32173 0.53855-0.4746 0.69141-0.15225 0.15351-0.46302 0.36616-0.68946 0.47461l-0.41406 0.19726h-48.71289l-0.38672-0.17773c-0.22898-0.10586-0.52002-0.31373-0.71094-0.50781-0.1776-0.18078-0.40232-0.49967-0.5-0.70899l-0.17773-0.38086v-10.65625l0.17773-0.38086c0.0977-0.20931 0.31229-0.51682 0.47657-0.68554 0.16363-0.16872 0.4321-0.37594 0.59765-0.46094s0.40777-0.17986 0.53906-0.21094c0.13638-0.0324 10.53476-0.05257 24.46875-0.04687zm-37.96289 0.00781c0.64571 0.0184 1.00831 0.065 1.47071 0.18359 0.33744 0.0869 0.84137 0.25582 1.12109 0.37696 0.27972 0.12115 0.76073 0.38418 1.06836 0.58398 0.31017 0.20234 0.81514 0.62177 1.13672 0.94336 0.32158 0.32158 0.74102 0.82656 0.94336 1.13672 0.1998 0.30763 0.46088 0.78864 0.58203 1.06836s0.2947 0.78365 0.38476 1.12109c0.14589 0.54549 0.16407 0.73173 0.16407 1.69141s-0.0182 1.14592-0.16407 1.69141c-0.0901 0.33744-0.26361 0.84331-0.38476 1.12304-0.12115 0.27971-0.38223 0.75878-0.58203 1.06641-0.20234 0.31017-0.62178 0.81709-0.94336 1.13867s-0.82655 0.73907-1.13672 0.94141c-0.30763 0.1998-0.78864 0.46283-1.06836 0.58398s-0.78365 0.29533-1.12109 0.38477c-0.53724 0.14334-0.74298 0.16284-1.66016 0.16601-0.87722 0.002-1.13742-0.0193-1.60742-0.13672-0.3089-0.0773-0.82833-0.25166-1.15625-0.38867-0.32793-0.137-0.84662-0.41216-1.15235-0.61133-0.30762-0.1998-0.81508-0.61914-1.13476-0.93945-0.32158-0.32158-0.73907-0.8285-0.94141-1.13867-0.1998-0.30763-0.46283-0.7867-0.58398-1.06641-0.12115-0.27973-0.2947-0.7856-0.38477-1.12304-0.14588-0.54549-0.16406-0.73173-0.16406-1.69141s0.0182-1.14592 0.16406-1.69141c0.0901-0.33744 0.26362-0.84137 0.38477-1.12109s0.38418-0.76073 0.58398-1.06836c0.20234-0.31016 0.61983-0.81514 0.94141-1.13672 0.31778-0.31841 0.82298-0.73755 1.12109-0.93164 0.29875-0.19409 0.77038-0.45375 1.04883-0.57617 0.27845-0.12241 0.72115-0.28121 0.98438-0.35352 0.26322-0.0723 0.64932-0.15711 0.85546-0.18945 0.20678-0.033 0.75983-0.04981 1.23047-0.03711zm16.42774 4.72852v4.75586h42.81445v-4.75586h-21.40625-21.4082zm-16.66992 0.00195c-0.19727 0.002-0.52012 0.0545-0.71485 0.11719-0.19536 0.0622-0.48806 0.20677-0.65234 0.32031-0.16428 0.11294-0.39707 0.33762-0.51758 0.5-0.11988 0.16301-0.2753 0.47722-0.3457 0.69922-0.0698 0.22136-0.12696 0.5537-0.12696 0.73828s0.0572 0.51691 0.12696 0.73828c0.0704 0.222 0.22582 0.53816 0.3457 0.70117 0.12051 0.16238 0.35199 0.3871 0.51562 0.5 0.16429 0.11294 0.46837 0.2582 0.67579 0.32227 0.20741 0.0647 0.52899 0.11719 0.71484 0.11719 0.18584 0 0.50548-0.0525 0.71289-0.11719 0.20741-0.0641 0.5115-0.20936 0.67578-0.32227 0.16365-0.11294 0.39707-0.33762 0.51758-0.5 0.11988-0.16301 0.2753-0.47917 0.3457-0.70117 0.0698-0.22137 0.125-0.5537 0.125-0.73828s-0.0552-0.51692-0.125-0.73828c-0.0704-0.222-0.22582-0.53621-0.3457-0.69922-0.12051-0.16238-0.35393-0.38709-0.51758-0.5-0.16428-0.11294-0.46837-0.2582-0.67578-0.32227-0.20741-0.0647-0.53711-0.11713-0.73437-0.11523zm71.51953 0.02734c0.32031 0.0171 0.56924 0.0733 0.82422 0.18946 0.20108 0.0919 0.51454 0.31263 0.69531 0.49023 0.19599 0.19346 0.39993 0.47943 0.50586 0.71094 0.15223 0.33173 0.17709 0.46737 0.17773 0.95703 0.00062 0.49157-0.0242 0.6252-0.17578 0.95312-0.0971 0.20932-0.3224 0.52821-0.5 0.70899-0.19346 0.19599-0.47942 0.398-0.71094 0.5039-0.33173 0.15223-0.46736 0.17905-0.95703 0.17969-0.49157 0.00063-0.62519-0.0242-0.95312-0.17578-0.20931-0.0971-0.52822-0.3224-0.70899-0.5-0.19599-0.19345-0.39993-0.47942-0.50586-0.71094-0.15223-0.33173-0.17709-0.46931-0.17773-0.95898-0.00062-0.49157 0.0235-0.62324 0.17578-0.95117 0.0971-0.20931 0.31033-0.51683 0.47461-0.68555 0.16364-0.16871 0.43405-0.37595 0.59961-0.46094 0.16555-0.085 0.40777-0.18185 0.53906-0.21484 0.13067-0.033 0.44483-0.04846 0.69727-0.03516zm9.51562 0c0.32031 0.0171 0.56924 0.0733 0.82422 0.18946 0.20108 0.0919 0.51259 0.31263 0.69336 0.49023 0.19599 0.19346 0.39994 0.47943 0.50586 0.71094 0.15223 0.33173 0.17709 0.46737 0.17773 0.95703 0.00063 0.49157-0.0242 0.6252-0.17578 0.95312-0.0971 0.20932-0.3224 0.52821-0.5 0.70899-0.19345 0.19599-0.47942 0.398-0.71093 0.5039-0.33173 0.15223-0.46737 0.17905-0.95704 0.17969-0.49157 0.00063-0.62324-0.0242-0.95117-0.17578-0.20931-0.0971-0.52821-0.3224-0.70898-0.5-0.19599-0.19345-0.39993-0.47942-0.50586-0.71094-0.15222-0.33173-0.17711-0.46931-0.17774-0.95898-0.00063-0.49157 0.02359-0.62324 0.17579-0.95117 0.0971-0.20931 0.31032-0.51683 0.4746-0.68555 0.16365-0.16871 0.43405-0.37595 0.59961-0.46094 0.16555-0.085 0.40778-0.18185 0.53907-0.21484 0.13067-0.033 0.44482-0.04846 0.69726-0.03516zm9.51367 0c0.32031 0.0171 0.56924 0.0733 0.82422 0.18946 0.20108 0.0919 0.51258 0.31263 0.69336 0.49023 0.19599 0.19346 0.39994 0.47943 0.50586 0.71094 0.15223 0.33173 0.1771 0.46737 0.17774 0.95703 0.00063 0.49157-0.0242 0.6252-0.17579 0.95312-0.0971 0.20932-0.32044 0.52821-0.49804 0.70899-0.19345 0.19599-0.47942 0.398-0.71094 0.5039-0.33173 0.15223-0.46931 0.17905-0.95898 0.17969-0.49157 0.00063-0.62325-0.0242-0.95118-0.17578-0.20931-0.0971-0.52821-0.3224-0.70898-0.5-0.19599-0.19345-0.39994-0.47942-0.50586-0.71094-0.15223-0.33173-0.17709-0.46931-0.17773-0.95898-0.00063-0.49157 0.0236-0.62324 0.17578-0.95117 0.0971-0.20931 0.31033-0.51683 0.47461-0.68555 0.16365-0.16871 0.43406-0.37595 0.59961-0.46094 0.16555-0.085 0.40777-0.18185 0.53906-0.21484 0.13067-0.033 0.44482-0.04846 0.69726-0.03516zm-47.58593 28.53516l57.52929 0.00781 0.41211 0.19727c0.22707 0.10849 0.53724 0.32305 0.68946 0.47656 0.15287 0.15285 0.36614 0.46237 0.4746 0.68945l0.19922 0.41407v29.68359l-0.19922 0.41211c-0.10847 0.22644-0.32173 0.53854-0.4746 0.69141-0.15222 0.1535-0.46239 0.36614-0.68946 0.4746l-0.41211 0.19727h-115.31445l-0.38672-0.17773c-0.22898-0.10587-0.52002-0.31373-0.71094-0.50782-0.1776-0.18077-0.40232-0.49967-0.5-0.70898l-0.17773-0.38086v-29.68359l0.17773-0.38086c0.0977-0.20931 0.31229-0.51878 0.47657-0.6875 0.16364-0.16871 0.4321-0.37595 0.59765-0.46094 0.16555-0.085 0.40777-0.17986 0.53906-0.21094 0.13766-0.0324 24.52661-0.05062 57.76954-0.04492zm-54.83594 4.73437v23.78711h109.41601v-23.78711h-54.70703-54.70898zm50.07812 4.7793l24.22852 0.00977 0.41406 0.19726c0.22644 0.10849 0.53722 0.32307 0.68946 0.47657 0.15287 0.15285 0.36615 0.46238 0.4746 0.68945l0.19922 0.41211v10.65625l-0.19922 0.41211c-0.10849 0.22644-0.32173 0.53854-0.4746 0.6914-0.15225 0.1535-0.46302 0.36811-0.68946 0.47657l-0.41406 0.19726h-48.71289l-0.38672-0.17969c-0.22898-0.10587-0.52002-0.31372-0.71094-0.50781-0.1776-0.18077-0.40232-0.49967-0.5-0.70898l-0.17773-0.38086v-10.65625l0.17773-0.37891c0.0977-0.20932 0.31229-0.51877 0.47657-0.6875 0.16363-0.16871 0.4321-0.37595 0.59765-0.46094 0.16555-0.085 0.40777-0.17985 0.53906-0.21093 0.13638-0.0324 10.53476-0.05258 24.46875-0.04688zm-37.96289 0.00977c0.64571 0.0184 1.00831 0.063 1.47071 0.18164 0.33744 0.0869 0.84137 0.25776 1.12109 0.3789 0.27972 0.12116 0.76073 0.38224 1.06836 0.58203 0.31017 0.20234 0.81514 0.62178 1.13672 0.94336s0.74102 0.82654 0.94336 1.13672c0.1998 0.30763 0.46088 0.78865 0.58203 1.06836 0.12115 0.27973 0.2947 0.78366 0.38476 1.1211 0.14589 0.54549 0.16407 0.73172 0.16407 1.6914s-0.0182 1.14787-0.16407 1.69336c-0.0901 0.33744-0.26361 0.84137-0.38476 1.1211-0.12115 0.27971-0.38223 0.76072-0.58203 1.06836-0.20234 0.31017-0.62178 0.81513-0.94336 1.13671s-0.82655 0.74102-1.13672 0.94336c-0.30763 0.1998-0.78864 0.46088-1.06836 0.58203s-0.78365 0.29533-1.12109 0.38477c-0.53724 0.14334-0.74298 0.16284-1.66016 0.16602-0.87722 0.002-1.13742-0.0193-1.60742-0.13672-0.3089-0.0774-0.82833-0.25168-1.15625-0.38867-0.32793-0.13701-0.84662-0.41216-1.15235-0.61133-0.30762-0.1998-0.81508-0.61915-1.13476-0.93946-0.32158-0.32158-0.73907-0.82656-0.94141-1.13671-0.1998-0.30764-0.46283-0.78865-0.58398-1.06836-0.12115-0.27973-0.2947-0.78366-0.38477-1.1211-0.14588-0.54549-0.16406-0.73368-0.16406-1.69336s0.0182-1.14591 0.16406-1.6914c0.0901-0.33744 0.26362-0.84137 0.38477-1.1211 0.12115-0.27971 0.38418-0.76073 0.58398-1.06836 0.20234-0.31018 0.61983-0.81514 0.94141-1.13672 0.31778-0.31841 0.82298-0.73755 1.12109-0.93164 0.29875-0.19409 0.77038-0.45375 1.04883-0.57617s0.72115-0.2812 0.98438-0.35351c0.26322-0.0723 0.64932-0.15711 0.85546-0.18946 0.20678-0.033 0.75983-0.04775 1.23047-0.03515zm16.42774 4.72656v4.75781h42.81445v-4.75781h-21.40625-21.4082zm-16.66992 0.00195c-0.19727 0.002-0.52012 0.0543-0.71485 0.11719-0.19536 0.0622-0.48806 0.20677-0.65234 0.32031-0.16428 0.11294-0.39707 0.33762-0.51758 0.5-0.11988 0.16301-0.2753 0.47917-0.3457 0.70117-0.0698 0.22136-0.12696 0.55371-0.12696 0.73829s0.0572 0.51691 0.12696 0.73828c0.0704 0.222 0.22582 0.53621 0.3457 0.69922 0.12051 0.16238 0.35199 0.3871 0.51562 0.5 0.16429 0.11294 0.46837 0.25819 0.67579 0.32226 0.20741 0.0647 0.52899 0.11719 0.71484 0.11719 0.18584 0 0.50548-0.0526 0.71289-0.11719 0.20741-0.0641 0.5115-0.20935 0.67578-0.32226 0.16365-0.11294 0.39707-0.33762 0.51758-0.5 0.11988-0.16301 0.2753-0.47722 0.3457-0.69922 0.0698-0.22137 0.125-0.5537 0.125-0.73828s-0.0552-0.51693-0.125-0.73829c-0.0704-0.222-0.22582-0.53816-0.3457-0.70117-0.12051-0.16238-0.35393-0.38709-0.51758-0.5-0.16428-0.11294-0.46837-0.25819-0.67578-0.32226-0.20741-0.0647-0.53711-0.11715-0.73437-0.11524zm71.51953 0.02735c0.32031 0.0171 0.56924 0.0733 0.82422 0.18945 0.20108 0.0919 0.51454 0.31263 0.69531 0.49023 0.19599 0.19346 0.39993 0.47942 0.50586 0.71094 0.15223 0.33173 0.17709 0.46932 0.17773 0.95899 0.00062 0.49157-0.0242 0.62325-0.17578 0.95117-0.0971 0.20931-0.3224 0.52821-0.5 0.70898-0.19346 0.19599-0.47942 0.39993-0.71094 0.50586-0.33173 0.15223-0.46736 0.1771-0.95703 0.17774-0.49157 0.00062-0.62519-0.0242-0.95312-0.17579-0.20931-0.0971-0.52822-0.3224-0.70899-0.5-0.19599-0.19345-0.39993-0.47941-0.50586-0.71093-0.15223-0.33173-0.17709-0.46736-0.17773-0.95703-0.00062-0.49157 0.0235-0.6252 0.17578-0.95313 0.0971-0.20931 0.31033-0.51683 0.47461-0.68555 0.16364-0.16872 0.43405-0.37594 0.59961-0.46093 0.16555-0.085 0.40777-0.18187 0.53906-0.21485 0.13067-0.033 0.44483-0.04855 0.69727-0.03515zm9.51562 0c0.32031 0.0171 0.56924 0.0733 0.82422 0.18945 0.20108 0.0919 0.51259 0.31263 0.69336 0.49023 0.19599 0.19346 0.39994 0.47942 0.50586 0.71094 0.15223 0.33173 0.17709 0.46932 0.17773 0.95899 0.00063 0.49157-0.0242 0.62325-0.17578 0.95117-0.0971 0.20931-0.3224 0.52821-0.5 0.70898-0.19345 0.19599-0.47942 0.39993-0.71093 0.50586-0.33173 0.15223-0.46737 0.1771-0.95704 0.17774-0.49157 0.00062-0.62324-0.0242-0.95117-0.17579-0.20931-0.0971-0.52821-0.3224-0.70898-0.5-0.19599-0.19345-0.39993-0.47941-0.50586-0.71093-0.15222-0.33173-0.17711-0.46736-0.17774-0.95703-0.00063-0.49157 0.02359-0.6252 0.17579-0.95313 0.0971-0.20931 0.31032-0.51683 0.4746-0.68555 0.16365-0.16872 0.43405-0.37594 0.59961-0.46093 0.16555-0.085 0.40778-0.18187 0.53907-0.21485 0.13067-0.033 0.44482-0.04855 0.69726-0.03515zm9.51367 0c0.32031 0.0171 0.56924 0.0733 0.82422 0.18945 0.20108 0.0919 0.51258 0.31263 0.69336 0.49023 0.19599 0.19346 0.39994 0.47942 0.50586 0.71094 0.15223 0.33173 0.1771 0.46932 0.17774 0.95899 0.00063 0.49157-0.0242 0.62325-0.17579 0.95117-0.0971 0.20931-0.32044 0.52821-0.49804 0.70898-0.19345 0.19599-0.47942 0.39993-0.71094 0.50586-0.33173 0.15223-0.46931 0.1771-0.95898 0.17774-0.49157 0.00062-0.62325-0.0242-0.95118-0.17579-0.20931-0.0971-0.52821-0.3224-0.70898-0.5-0.19599-0.19345-0.39994-0.47941-0.50586-0.71093-0.15223-0.33173-0.17709-0.46736-0.17773-0.95703-0.00063-0.49157 0.0236-0.6252 0.17578-0.95313 0.0971-0.20931 0.31033-0.51683 0.47461-0.68555 0.16365-0.16872 0.43406-0.37594 0.59961-0.46093 0.16555-0.085 0.40777-0.18187 0.53906-0.21485 0.13067-0.033 0.44482-0.04855 0.69726-0.03515zm147.37305 19.59961v17.28515h2.60547v-3.76367l2.06055-1.94141 3.95507 5.70508h2.76954l-5.06641-7.17383 4.80664-5.18554h-2.8418l-5.68359 6.03711v-10.96289h-2.60547zm12.99805 0v2.86523h2.60351v-2.86523h-2.60351zm77.00586 0v17.28515h2.60351v-7.36328c0.1263-0.42624 0.31578-0.81285 0.56836-1.16016 0.25259-0.36309 0.53778-0.67124 0.85352-0.92382 0.33152-0.26838 0.67792-0.47316 1.04101-0.61524 0.3631-0.14208 0.72675-0.21289 1.08985-0.21289 0.75776 0 1.33385 0.27559 1.72851 0.82813 0.41046 0.53674 0.61524 1.37312 0.61524 2.50976v6.9375h2.60547v-7.55273c0-0.67883-0.0632-1.31808-0.18946-1.91797-0.1105-0.61568-0.31529-1.15352-0.61523-1.61133-0.29995-0.45781-0.70381-0.81952-1.20899-1.08789-0.48938-0.28416-1.12098-0.42773-1.89453-0.42773-0.96298 0-1.85487 0.23733-2.67578 0.71093-0.80512 0.4736-1.44437 1.13776-1.91797 1.99024v-7.38867h-2.60351zm48.37695 0v17.28515h2.29688v-2.24805c0.44201 0.75777 1.04106 1.36446 1.79882 1.82227 0.77355 0.44203 1.63483 0.66406 2.58203 0.66406 0.82091 0 1.58648-0.16652 2.29688-0.49804 0.72619-0.33152 1.35013-0.78129 1.87109-1.34961 0.52096-0.58411 0.93053-1.26357 1.23047-2.03711 0.29995-0.77355 0.45117-1.60228 0.45117-2.48633 0-0.85248-0.13397-1.66591-0.40234-2.43945-0.25259-0.78934-0.62389-1.47449-1.11328-2.0586-0.4736-0.59989-1.04969-1.07457-1.72852-1.42187-0.67882-0.3631-1.42909-0.54492-2.25-0.54492-0.99456 0-1.86349 0.22968-2.60547 0.6875-0.72618 0.45781-1.33287 1.08176-1.82226 1.87109v-7.24609h-2.60547zm63.27734 0v7.24609c-0.42624-0.74197-1.01958-1.35062-1.77734-1.82422-0.75776-0.48939-1.63239-0.73437-2.62695-0.73437-0.80512 0-1.54774 0.17417-2.22657 0.52148-0.66304 0.33152-1.24678 0.78894-1.75195 1.37305-0.48939 0.5841-0.87601 1.26356-1.16015 2.03711-0.26838 0.75776-0.4043 1.57118-0.4043 2.43945 0 0.89984 0.14357 1.74387 0.42773 2.5332 0.29995 0.77355 0.70951 1.45301 1.23047 2.03711 0.52096 0.58411 1.13726 1.04918 1.84766 1.39649 0.7104 0.33152 1.48362 0.49804 2.32031 0.49804 0.96299 0 1.83957-0.22203 2.62891-0.66406 0.78933-0.44203 1.41328-1.04871 1.87109-1.82227l0.04687 0.92188c0.03161 0.42624 0.21341 0.7746 0.54493 1.04297s0.75638 0.40234 1.27734 0.40234c0.11051 0 0.24643-0.00803 0.4043-0.02343 0.17365-0.01581 0.39373-0.04841 0.66211-0.09571v-2.22461c-0.26838-0.0158-0.45786-0.0866-0.56836-0.21289-0.0947-0.12629-0.14258-0.34068-0.14258-0.64062v-14.20703h-2.60352zm11.74024 0v2.86523h2.60547v-2.86523h-2.60547zm42.25 0v14.6582c0 0.89984 0.24499 1.5946 0.73437 2.08398 0.50518 0.48939 1.20757 0.73244 2.10743 0.73242 0.41043 0.00001 0.87552-0.0536 1.39648-0.16406 0.52096-0.0947 0.97073-0.23064 1.34961-0.40429l-0.37891-2.03516c-0.20522 0.079-0.42531 0.14976-0.66211 0.21289-0.22101 0.0631-0.41814 0.09375-0.59179 0.09375-0.42624 0-0.7593-0.12632-0.9961-0.37891-0.2368-0.26837-0.35351-0.63007-0.35351-1.08789v-13.71093h-2.60547zm7.12304 0v14.6582c0 0.89984 0.24304 1.5946 0.73243 2.08398 0.50517 0.48939 1.20953 0.73244 2.10937 0.73242 0.41046 0.00001 0.87553-0.0536 1.39649-0.16406 0.52096-0.0947 0.97073-0.23064 1.34961-0.40429l-0.37891-2.03516c-0.20523 0.079-0.42726 0.14976-0.66406 0.21289-0.22102 0.0631-0.41815 0.09375-0.5918 0.09375-0.42624 0-0.75734-0.12632-0.99414-0.37891-0.2368-0.26837-0.35547-0.63007-0.35547-1.08789v-13.71093h-2.60352zm7.09766 0v2.86523h2.60547v-2.86523h-2.60547zm-303.3457 0.47265v16.8125h2.65234v-12.09961l5.01953 9.16406h1.46875l4.9961-9.16406v12.09961h2.67578v-16.8125h-2.8418l-5.56445 10.27735-5.56445-10.27735h-2.8418zm87.41211 0v16.8125h2.65234v-5.84765h4.54688c0.75776 0 1.44486-0.15123 2.06054-0.45118 0.63147-0.31573 1.16735-0.72531 1.60938-1.23046 0.44202-0.52097 0.78273-1.1047 1.01953-1.75196 0.25259-0.66304 0.37891-1.35017 0.37891-2.06054 0-0.67884-0.13593-1.34103-0.4043-1.98829-0.25259-0.66304-0.60664-1.24873-1.06445-1.7539-0.45782-0.52096-1.01095-0.93818-1.65821-1.25391-0.63146-0.31573-1.32622-0.47461-2.08398-0.47461h-7.05664zm28.01172 0.35547v4.07422h-1.63282v2.01172h1.63282v7.74414c0 0.50517 0.0785 0.93769 0.23632 1.30078 0.15787 0.34731 0.37226 0.6325 0.64063 0.85352 0.28416 0.22101 0.60761 0.38754 0.9707 0.49804 0.3631 0.11051 0.74971 0.16408 1.16016 0.16406 0.66304 0 1.28699-0.0938 1.87109-0.2832 0.58411-0.20522 1.04153-0.38705 1.37305-0.54492l-0.54492-2.06055c-0.15787 0.0789-0.40286 0.1823-0.73438 0.3086-0.33152 0.12629-0.67792 0.18945-1.04101 0.18945-0.3631 0-0.67124-0.0957-0.92383-0.28516-0.23677-0.20522-0.37075-0.52867-0.40234-0.9707v-6.91406h2.69921v-2.01172h-2.69921v-4.07422h-2.60547zm151.83984 0v4.07422h-1.63477v2.01172h1.63477v7.74414c0 0.50517 0.0785 0.93769 0.23633 1.30078 0.15786 0.34731 0.3703 0.6325 0.63867 0.85352 0.28416 0.22101 0.60761 0.38754 0.9707 0.49804 0.3631 0.11051 0.74971 0.16408 1.16016 0.16406 0.66304 0 1.28699-0.0938 1.87109-0.2832 0.58411-0.20522 1.04153-0.38705 1.37305-0.54492l-0.54297-2.06055c-0.15787 0.0789-0.40285 0.1823-0.73437 0.3086-0.33152 0.12629-0.67988 0.18945-1.04297 0.18945-0.3631 0-0.67124-0.0957-0.92383-0.28516-0.23677-0.20522-0.37074-0.52867-0.40234-0.9707v-6.91406h2.69921v-2.01172h-2.69921v-4.07422h-2.60352zm85.46875 0v4.07422h-1.63281v2.01172h1.63281v7.74414c0 0.50517 0.0804 0.93769 0.23828 1.30078 0.15787 0.34731 0.3703 0.6325 0.63867 0.85352 0.28416 0.22101 0.60761 0.38754 0.97071 0.49804 0.36309 0.11051 0.7497 0.16408 1.16015 0.16406 0.66304 0 1.28699-0.0938 1.8711-0.2832 0.5841-0.20522 1.04152-0.38705 1.37304-0.54492l-0.54492-2.06055c-0.15787 0.0789-0.40285 0.1823-0.73437 0.3086-0.33152 0.12629-0.67793 0.18945-1.04102 0.18945s-0.67124-0.0957-0.92383-0.28516c-0.23677-0.20522-0.37074-0.52867-0.40234-0.9707v-6.91406h2.69922v-2.01172h-2.69922v-4.07422h-2.60547zm-262.66797 1.99024h4.23828c0.34731-0.00001 0.68036 0.0785 0.9961 0.23632 0.33152 0.14208 0.62241 0.3545 0.875 0.63868 0.25258 0.26837 0.44971 0.59182 0.59179 0.9707s0.21289 0.80569 0.21289 1.2793c0 0.4578-0.0632 0.87697-0.18945 1.25585-0.12629 0.37888-0.29852 0.70999-0.51953 0.99415-0.22101 0.28415-0.49091 0.50424-0.80664 0.6621-0.29995 0.15787-0.6387 0.23633-1.01758 0.23633h-4.38086v-6.27343zm-65.14648 1.86914c-1.72075 0-3.37821 0.53783-4.97266 1.61132l0.80469 1.65821c0.67882-0.45782 1.33532-0.80617 1.9668-1.04297 0.64724-0.25259 1.3018-0.37891 1.96484-0.37891 0.97877 0 1.72904 0.26029 2.25 0.78125 0.52096 0.50518 0.78125 1.21523 0.78125 2.13086v0.85352c-0.45781-0.17366-0.97074-0.30763-1.53906-0.40235-0.56832-0.1105-1.14441-0.16601-1.72852-0.16601-0.77355 0-1.48556 0.0938-2.13281 0.2832-0.63147 0.18944-1.18265 0.45933-1.65625 0.80664-0.45782 0.34731-0.81382 0.75687-1.06641 1.23047-0.25258 0.4736-0.3789 1.00183-0.3789 1.58594 0 0.55253 0.10336 1.06546 0.30859 1.53906 0.22101 0.4736 0.51191 0.88512 0.875 1.23242 0.37888 0.34731 0.821 0.6229 1.32617 0.82813 0.52096 0.18944 1.08175 0.28515 1.68164 0.28515 0.93142 0 1.80035-0.18948 2.60547-0.56836 0.82091-0.39466 1.50801-0.95545 2.06055-1.68164l0.07031 0.78125c0.0632 0.39467 0.22967 0.71812 0.49805 0.97071 0.28416 0.25258 0.67842 0.3789 1.18359 0.3789 0.17365 0 0.34783-0.00804 0.52149-0.02343 0.18943-0.01581 0.40952-0.04841 0.6621-0.09571v-2.22461c-0.45781-0.0158-0.6875-0.30098-0.6875-0.85351v-4.47461c0-1.62603-0.47272-2.87392-1.41992-3.74219s-2.27355-1.30273-3.97851-1.30273zm34.70312 0c-1.08928 0-2.08453 0.24498-2.98437 0.73437-0.89984 0.4736-1.58695 1.1301-2.06055 1.9668v-2.48633h-2.36719v12.38281h2.60352v-7.36328c0.14208-0.42624 0.34116-0.81285 0.59375-1.16016 0.26837-0.36309 0.56692-0.67124 0.89844-0.92382 0.33152-0.26838 0.68752-0.47316 1.0664-0.61524s0.75784-0.21289 1.13672-0.21289c0.72619 0 1.26972 0.26794 1.63281 0.80469 0.37888 0.52096 0.56836 1.36499 0.56836 2.5332v6.9375h2.60547v-7.55273c0-0.67883-0.0555-1.31808-0.16601-1.91797-0.11051-0.61568-0.30764-1.15352-0.5918-1.61133-0.26837-0.4736-0.63968-0.84295-1.11328-1.11133-0.4736-0.26837-1.08029-0.40429-1.82227-0.40429zm11.73633 0c-0.85248 0-1.63335 0.17417-2.34375 0.52148-0.69461 0.33152-1.29561 0.78894-1.80078 1.37305-0.50517 0.56832-0.89945 1.24777-1.18359 2.03711-0.28418 0.77354-0.42579 1.60227-0.42579 2.48632 0 0.8367 0.13397 1.63482 0.40235 2.39258 0.28416 0.75776 0.67077 1.42761 1.16015 2.01172 0.50518 0.58411 1.10617 1.04918 1.80079 1.39649 0.69461 0.33152 1.46018 0.49804 2.29687 0.49804 0.85248 0 1.66395-0.20478 2.4375-0.61523 0.77355-0.41046 1.38219-0.99417 1.82422-1.75196v1.89454c0 0.63146-0.11102 1.175-0.33203 1.63281-0.20523 0.45781-0.48848 0.83677-0.85156 1.13672-0.36311 0.29994-0.78992 0.52198-1.2793 0.66406-0.4736 0.14208-0.97888 0.21289-1.51563 0.21289-0.85248 0-1.65825-0.17418-2.41601-0.52148-0.74198-0.34731-1.34867-0.85259-1.82227-1.51563l-1.46875 1.37305c0.61568 0.83669 1.3736 1.48359 2.27344 1.9414 0.91563 0.4736 2.06015 0.71094 3.43359 0.71094 0.93142 0 1.80035-0.12632 2.60547-0.3789 0.80512-0.25259 1.49988-0.6239 2.08399-1.11329 0.59989-0.4736 1.06496-1.05734 1.39648-1.75195s0.49805-1.49078 0.49805-2.39062v-12.0293h-2.29688v2.34375c-0.48938-0.75776-1.11333-1.37406-1.87109-1.84766-0.74197-0.4736-1.61091-0.71093-2.60547-0.71093zm71.83984 0c-0.96298 0-1.83957 0.17417-2.6289 0.52148-0.77355 0.34731-1.4434 0.81238-2.01172 1.39648-0.55253 0.58411-0.97935 1.27122-1.2793 2.06055-0.29994 0.77355-0.44922 1.58697-0.44922 2.43945s0.14928 1.67356 0.44922 2.4629c0.29995 0.77354 0.72677 1.453 1.2793 2.0371 0.55253 0.58411 1.21473 1.04918 1.98828 1.39649 0.78933 0.34731 1.67357 0.52148 2.65234 0.52148 0.96299 0 1.83193-0.17417 2.60547-0.52148 0.78934-0.34731 1.45919-0.81238 2.01172-1.39649 0.56832-0.5841 1.00279-1.26356 1.30274-2.0371 0.29994-0.78934 0.44921-1.61042 0.44921-2.4629s-0.14927-1.6659-0.44921-2.43945c-0.29995-0.78933-0.73442-1.47644-1.30274-2.06055-0.55253-0.5841-1.22238-1.04917-2.01172-1.39648-0.77354-0.34731-1.64248-0.52148-2.60547-0.52148zm16.0918 0c-1.08928 0-2.08453 0.24498-2.98437 0.73437-0.89984 0.4736-1.585 1.1301-2.0586 1.9668v-2.48633h-2.36914v12.38281h2.60547v-7.36328c0.14208-0.42624 0.33921-0.81285 0.5918-1.16016 0.26837-0.36309 0.56887-0.67124 0.90039-0.92382 0.33152-0.26838 0.68557-0.47316 1.06445-0.61524s0.75784-0.21289 1.13672-0.21289c0.72619 0 1.27167 0.26794 1.63476 0.80469 0.37888 0.52096 0.56836 1.36499 0.56836 2.5332v6.9375h2.60352v-7.55273c0-0.67883-0.0536-1.31808-0.16406-1.91797-0.11051-0.61568-0.30959-1.15352-0.59375-1.61133-0.26838-0.4736-0.63773-0.84295-1.11133-1.11133-0.4736-0.26837-1.08225-0.40429-1.82422-0.40429zm32.26758 0c-1.72075 0-3.3782 0.53783-4.97266 1.61132l0.80469 1.65821c0.67883-0.45782 1.33533-0.80617 1.9668-1.04297 0.64725-0.25259 1.3018-0.37891 1.96484-0.37891 0.97877 0 1.72904 0.26029 2.25 0.78125 0.52096 0.50518 0.78125 1.21523 0.78125 2.13086v0.85352c-0.45781-0.17366-0.97074-0.30763-1.53906-0.40235-0.56832-0.1105-1.14441-0.16601-1.72852-0.16601-0.77354 0-1.48556 0.0938-2.13281 0.2832-0.63147 0.18944-1.18265 0.45933-1.65625 0.80664-0.45781 0.34731-0.81382 0.75687-1.06641 1.23047-0.25258 0.4736-0.3789 1.00183-0.3789 1.58594 0 0.55253 0.10336 1.06546 0.30859 1.53906 0.22101 0.4736 0.51191 0.88512 0.875 1.23242 0.37888 0.34731 0.821 0.6229 1.32617 0.82813 0.52096 0.18944 1.08175 0.28515 1.68164 0.28515 0.93142 0 1.80035-0.18948 2.60547-0.56836 0.82091-0.39466 1.50802-0.95545 2.06055-1.68164l0.07031 0.78125c0.0631 0.39467 0.22968 0.71812 0.49805 0.97071 0.28416 0.25258 0.67842 0.3789 1.18359 0.3789 0.17366 0 0.34783-0.00804 0.52149-0.02343 0.18944-0.01581 0.40952-0.04841 0.66211-0.09571v-2.22461c-0.45782-0.0158-0.6875-0.30098-0.6875-0.85351v-4.47461c0-1.62603-0.47273-2.87392-1.41993-3.74219s-2.27355-1.30273-3.97851-1.30273zm12.86914 0c-0.67883 0-1.31043 0.0881-1.89453 0.26171-0.58411 0.17366-1.09704 0.43395-1.53906 0.78125-0.42624 0.33152-0.765 0.74109-1.01758 1.23047-0.2368 0.48939-0.35547 1.05018-0.35547 1.68164 0 0.4736 0.0785 0.87552 0.23633 1.20703 0.15786 0.33153 0.4105 0.62437 0.75781 0.87696 0.34731 0.25258 0.79708 0.47462 1.34961 0.66406s1.21669 0.38657 1.99023 0.5918c1.0735 0.28416 1.86202 0.54445 2.36719 0.78125s0.75781 0.61576 0.75781 1.13672c0 0.55253-0.22968 0.97739-0.6875 1.27734-0.44202 0.29995-1.04872 0.45117-1.82226 0.45117-0.75776 0-1.50039-0.13397-2.22656-0.40234-0.7262-0.28416-1.4592-0.69568-2.20118-1.23242l-1.04297 1.6582c0.7104 0.59989 1.55443 1.06496 2.53321 1.39648 0.99456 0.31574 1.98981 0.47461 2.98437 0.47461 1.53131 0 2.739-0.3407 3.62305-1.01953 0.89984-0.69461 1.34961-1.6324 1.34961-2.8164 0-0.52096-0.0938-0.96308-0.2832-1.32618-0.18944-0.37888-0.48229-0.70233-0.87696-0.9707-0.39466-0.28416-0.89994-0.52915-1.51562-0.73437-0.5999-0.20523-1.31761-0.41197-2.1543-0.61719-0.50517-0.1263-0.93199-0.23536-1.2793-0.33008-0.33152-0.11051-0.60711-0.22918-0.82812-0.35547-0.20523-0.12629-0.35645-0.27752-0.45117-0.45117-0.0947-0.17365-0.14063-0.38609-0.14063-0.63867 0-0.5999 0.22008-1.03436 0.66211-1.30274 0.45781-0.28416 1.0186-0.42578 1.68164-0.42578 1.29451 0 2.5175 0.45742 3.66992 1.37305l1.11328-1.5625c-0.63144-0.53675-1.34917-0.94631-2.15429-1.23047s-1.67406-0.42773-2.60547-0.42773zm13.07422 0c-0.97878 0-1.86301 0.17417-2.65235 0.52148-0.78933 0.33152-1.46877 0.79659-2.03711 1.39648-0.55251 0.58411-0.987 1.27122-1.30273 2.06055-0.29995 0.77355-0.44922 1.59463-0.44922 2.46289 0 0.86827 0.14927 1.68935 0.44922 2.46289 0.31573 0.77355 0.75021 1.45301 1.30273 2.03711 0.56833 0.58411 1.24778 1.04918 2.03711 1.39649 0.78934 0.33152 1.66592 0.49804 2.62891 0.49804 1.31029 0 2.45482-0.29284 3.43359-0.87695 0.99456-0.59989 1.70462-1.36546 2.13086-2.29688l-2.22656-0.63867c-0.12629 0.28416-0.30047 0.54445-0.52148 0.78125-0.22102 0.2368-0.47366 0.44158-0.75782 0.61524-0.28416 0.15786-0.59995 0.28418-0.94726 0.3789-0.33152 0.0789-0.67027 0.11914-1.01758 0.11914-0.4736 0-0.93102-0.0881-1.37305-0.26171-0.42624-0.17366-0.81285-0.41865-1.16015-0.73438-0.33152-0.33152-0.60907-0.71813-0.83008-1.16016-0.20525-0.44202-0.33157-0.9377-0.37891-1.49023h9.92188c0.0158-0.11051 0.03303-0.24643 0.04883-0.4043 0.0158-0.17365 0.02343-0.35353 0.02343-0.54297 0-0.83669-0.14926-1.63481-0.44922-2.39257-0.28414-0.77355-0.70332-1.44536-1.25585-2.01368-0.55254-0.5841-1.22434-1.04917-2.01368-1.39648-0.77354-0.34731-1.64053-0.52148-2.60351-0.52148zm42.52148 0c-1.08928 0-2.08453 0.24498-2.98437 0.73437-0.89984 0.4736-1.585 1.1301-2.0586 1.9668v-2.48633h-2.36914v12.38281h2.60547v-7.36328c0.14208-0.42624 0.33921-0.81285 0.5918-1.16016 0.26837-0.36309 0.56887-0.67124 0.90039-0.92382 0.33152-0.26838 0.68557-0.47316 1.06445-0.61524s0.75784-0.21289 1.13672-0.21289c0.72619 0 1.27167 0.26794 1.63477 0.80469 0.37888 0.52096 0.56836 1.36499 0.56836 2.5332v6.9375h2.60351v-7.55273c0-0.67883-0.0536-1.31808-0.16406-1.91797-0.11051-0.61568-0.30764-1.15352-0.5918-1.61133-0.26837-0.4736-0.63968-0.84295-1.11328-1.11133-0.4736-0.26837-1.08224-0.40429-1.82422-0.40429zm20.60938 0c-0.97878 0-1.86301 0.17417-2.65235 0.52148-0.78933 0.33152-1.46879 0.79659-2.03711 1.39648-0.55253 0.58411-0.98504 1.27122-1.30078 2.06055-0.29994 0.77355-0.45117 1.59463-0.45117 2.46289 0 0.86827 0.15123 1.68935 0.45117 2.46289 0.31574 0.77355 0.74825 1.45301 1.30078 2.03711 0.56832 0.58411 1.24778 1.04918 2.03711 1.39649 0.78934 0.33152 1.66592 0.49804 2.62891 0.49804 1.31029 0 2.45482-0.29284 3.43359-0.87695 0.99456-0.59989 1.70462-1.36546 2.13086-2.29688l-2.22656-0.63867c-0.12629 0.28416-0.29852 0.54445-0.51953 0.78125s-0.47365 0.44158-0.75781 0.61524c-0.28416 0.15786-0.59996 0.28418-0.94727 0.3789-0.33152 0.0789-0.67222 0.11914-1.01953 0.11914-0.4736 0-0.93102-0.0881-1.37305-0.26171-0.42624-0.17366-0.81285-0.41865-1.16015-0.73438-0.33152-0.33152-0.60711-0.71813-0.82813-1.16016-0.20525-0.44202-0.33157-0.9377-0.3789-1.49023h9.92187c0.0158-0.11051 0.03108-0.24643 0.04688-0.4043 0.0158-0.17365 0.02343-0.35353 0.02343-0.54297 0-0.83669-0.14927-1.63481-0.44922-2.39257-0.28416-0.77355-0.7033-1.44536-1.25586-2.01368-0.55253-0.5841-1.22238-1.04917-2.01171-1.39648-0.77355-0.34731-1.64249-0.52148-2.60547-0.52148zm33.44726 0c-0.85248 0-1.6353 0.17417-2.3457 0.52148-0.69461 0.33152-1.29365 0.78894-1.79883 1.37305-0.50517 0.56832-0.89943 1.24777-1.18359 2.03711-0.28416 0.77354-0.42578 1.60227-0.42578 2.48632 0 0.8367 0.13397 1.63482 0.40234 2.39258 0.28416 0.75776 0.67077 1.42761 1.16016 2.01172 0.50517 0.58411 1.10421 1.04918 1.79882 1.39649 0.69462 0.33152 1.46019 0.49804 2.29688 0.49804 0.85248 0 1.66591-0.20478 2.43945-0.61523 0.77355-0.41046 1.3822-0.99417 1.82422-1.75196v1.89454c0 0.63146-0.11102 1.175-0.33203 1.63281-0.20523 0.45781-0.49041 0.83677-0.85352 1.13672-0.36309 0.29994-0.78795 0.52198-1.27734 0.66406-0.4736 0.14208-0.97888 0.21289-1.51562 0.21289-0.85248 0-1.65826-0.17418-2.41602-0.52148-0.74197-0.34731-1.34867-0.85259-1.82226-1.51563l-1.46876 1.37305c0.61568 0.83669 1.3736 1.48359 2.27344 1.9414 0.91563 0.4736 2.06016 0.71094 3.4336 0.71094 0.93141 0 1.79839-0.12632 2.60351-0.3789 0.80512-0.25259 1.49988-0.6239 2.08399-1.11329 0.59989-0.4736 1.06691-1.05734 1.39843-1.75195s0.4961-1.49078 0.4961-2.39062v-12.0293h-2.29688v2.34375c-0.48938-0.75776-1.11333-1.37406-1.87109-1.84766-0.74197-0.4736-1.60896-0.71093-2.60352-0.71093zm15.53125 0c-0.97877 0-1.86301 0.17417-2.65234 0.52148-0.78933 0.33152-1.46879 0.79659-2.03711 1.39648-0.55253 0.58411-0.98505 1.27122-1.30078 2.06055-0.29995 0.77355-0.45117 1.59463-0.45117 2.46289 0 0.86827 0.15122 1.68935 0.45117 2.46289 0.31573 0.77355 0.74825 1.45301 1.30078 2.03711 0.56832 0.58411 1.24778 1.04918 2.03711 1.39649 0.78933 0.33152 1.66592 0.49804 2.62891 0.49804 1.31029 0 2.45482-0.29284 3.43359-0.87695 0.99456-0.59989 1.70462-1.36546 2.13086-2.29688l-2.22656-0.63867c-0.1263 0.28416-0.29854 0.54445-0.51953 0.78125-0.22102 0.2368-0.47366 0.44158-0.75782 0.61524-0.28416 0.15786-0.59996 0.28418-0.94726 0.3789-0.33152 0.0789-0.67223 0.11914-1.01953 0.11914-0.4736 0-0.93102-0.0881-1.37305-0.26171-0.42624-0.17366-0.81285-0.41865-1.16016-0.73438-0.33152-0.33152-0.60711-0.71813-0.82812-1.16016-0.20526-0.44202-0.33158-0.9377-0.37891-1.49023h9.92188c0.0158-0.11051 0.03107-0.24643 0.04687-0.4043 0.0158-0.17365 0.02344-0.35353 0.02344-0.54297 0-0.83669-0.14927-1.63481-0.44922-2.39257-0.28416-0.77355-0.70333-1.44536-1.25586-2.01368-0.55253-0.5841-1.22238-1.04917-2.01172-1.39648-0.77354-0.34731-1.64248-0.52148-2.60547-0.52148zm15.88282 0c-1.08928 0-2.08454 0.24498-2.98438 0.73437-0.89984 0.4736-1.58695 1.1301-2.06055 1.9668v-2.48633h-2.36718v12.38281h2.60546v-7.36328c0.14208-0.42624 0.33922-0.81285 0.5918-1.16016 0.26838-0.36309 0.56692-0.67124 0.89844-0.92382 0.33152-0.26838 0.68753-0.47316 1.06641-0.61524s0.75783-0.21289 1.13671-0.21289c0.72619 0 1.26972 0.26794 1.63282 0.80469 0.37888 0.52096 0.56836 1.36499 0.56836 2.5332v6.9375h2.60546v-7.55273c0.00001-0.67883-0.0555-1.31808-0.16601-1.91797-0.11051-0.61568-0.30764-1.15352-0.5918-1.61133-0.26837-0.4736-0.63968-0.84295-1.11328-1.11133-0.4736-0.26837-1.08029-0.40429-1.82226-0.40429zm25.93164 0c-1.72075 0-3.37821 0.53783-4.97266 1.61132l0.80469 1.65821c0.67882-0.45782 1.33337-0.80617 1.96484-1.04297 0.64725-0.25259 1.30181-0.37891 1.96484-0.37891 0.9788 0 1.72906 0.26029 2.25 0.78125 0.52096 0.50518 0.78125 1.21523 0.78126 2.13086v0.85352c-0.45782-0.17366-0.97075-0.30763-1.53907-0.40235-0.56832-0.1105-1.14441-0.16601-1.72851-0.16601-0.77355 0-1.48361 0.0938-2.13086 0.2832-0.63147 0.18944-1.18461 0.45933-1.65821 0.80664-0.45781 0.34731-0.81186 0.75687-1.06445 1.23047s-0.37891 1.00183-0.3789 1.58594c-0.00001 0.55253 0.10141 1.06546 0.30664 1.53906 0.22101 0.4736 0.51386 0.88512 0.87695 1.23242 0.37888 0.34731 0.821 0.6229 1.32617 0.82813 0.52096 0.18944 1.08175 0.28515 1.68164 0.28515 0.93141 0 1.7984-0.18948 2.60352-0.56836 0.8209-0.39466 1.50801-0.95545 2.06054-1.68164l0.07227 0.78125c0.0632 0.39467 0.22772 0.71812 0.49609 0.97071 0.28416 0.25258 0.67842 0.3789 1.1836 0.3789 0.17365 0 0.34783-0.00804 0.52148-0.02343 0.18944-0.01581 0.41148-0.04841 0.66406-0.09571v-2.22461c-0.45781-0.0158-0.6875-0.30098-0.6875-0.85351v-4.47461c0-1.62603-0.47272-2.87392-1.41992-3.74219s-2.27355-1.30273-3.97851-1.30273zm15.23632 0c-0.9472 0-1.79888 0.22203-2.55664 0.66406-0.74197 0.44202-1.35064 1.03342-1.82421 1.77539v-2.22461h-2.29688v17.42773h2.60547v-7.36523c0.44203 0.75776 1.04107 1.37406 1.79883 1.84766s1.63434 0.71093 2.6289 0.71093c0.80512 0 1.53812-0.16652 2.20118-0.49804 0.6788-0.34731 1.26451-0.80473 1.7539-1.37305 0.48939-0.58411 0.86835-1.26356 1.13672-2.03711 0.26837-0.78933 0.40234-1.63336 0.40234-2.5332 0-0.85248-0.15122-1.66591-0.45117-2.43946-0.28416-0.77354-0.68607-1.453-1.20703-2.03711-0.52096-0.5841-1.13726-1.04917-1.84766-1.39648s-1.49127-0.52148-2.34375-0.52148zm14.89258 0c-0.9472 0-1.79888 0.22203-2.55664 0.66406-0.74197 0.44202-1.35062 1.03342-1.82422 1.77539v-2.22461h-2.29687v17.42773h2.60547v-7.36523c0.44202 0.75776 1.04106 1.37406 1.79883 1.84766 0.75774 0.4736 1.63434 0.71093 2.6289 0.71093 0.80512 0 1.53813-0.16652 2.20117-0.49804 0.67883-0.34731 1.26452-0.80473 1.75391-1.37305 0.48939-0.58411 0.86834-1.26356 1.13672-2.03711 0.26837-0.78933 0.40234-1.63336 0.40234-2.5332 0-0.85248-0.15122-1.66591-0.45117-2.43946-0.28416-0.77354-0.68607-1.453-1.20703-2.03711-0.52096-0.5841-1.13726-1.04917-1.84766-1.39648s-1.49127-0.52148-2.34375-0.52148zm12.52344 0c-0.67883 0-1.30847 0.0881-1.89258 0.26171-0.5841 0.17366-1.09899 0.43395-1.54101 0.78125-0.42624 0.33152-0.765 0.74109-1.01758 1.23047-0.2368 0.48939-0.35547 1.05018-0.35547 1.68164 0 0.4736 0.0804 0.87552 0.23828 1.20703 0.15787 0.33153 0.41051 0.62437 0.75781 0.87696 0.34731 0.25258 0.79708 0.47462 1.34961 0.66406 0.55254 0.18944 1.21474 0.38657 1.98828 0.5918 1.0735 0.28416 1.86202 0.54445 2.36719 0.78125s0.75781 0.61576 0.75781 1.13672c0 0.55253-0.22773 0.97739-0.68554 1.27734-0.44203 0.29995-1.05068 0.45117-1.82422 0.45117-0.75776 0-1.49842-0.13397-2.22461-0.40234-0.72619-0.28416-1.46115-0.69568-2.20313-1.23242l-1.04101 1.6582c0.7104 0.59989 1.55443 1.06496 2.5332 1.39648 0.99456 0.31574 1.98786 0.47461 2.98242 0.47461 1.53131 0 2.739-0.3407 3.62305-1.01953 0.89984-0.69461 1.35156-1.6324 1.35156-2.8164 0-0.52096-0.0957-0.96308-0.28515-1.32618-0.18944-0.37888-0.48229-0.70233-0.87696-0.9707-0.39466-0.28416-0.89799-0.52915-1.51367-0.73437-0.59989-0.20523-1.31956-0.41197-2.15625-0.61719-0.50517-0.1263-0.93004-0.23536-1.27734-0.33008-0.33152-0.11051-0.60907-0.22918-0.83008-0.35547-0.20523-0.12629-0.3545-0.27752-0.44922-0.45117-0.0947-0.17365-0.14258-0.38609-0.14258-0.63867 0-0.5999 0.22206-1.03436 0.66406-1.30274 0.45782-0.28416 1.01665-0.42578 1.67969-0.42578 1.29451 0 2.51945 0.45742 3.67188 1.37305l1.11133-1.5625c-0.63147-0.53675-1.34918-0.94631-2.1543-1.23047s-1.67406-0.42773-2.60547-0.42773zm-367.60156 0.21484v12.38281h2.60351v-12.38281h-2.60351zm54.00976 0l5.0918 12.38281c-0.22101 0.63147-0.41814 1.14635-0.5918 1.54102-0.15786 0.41045-0.31674 0.72625-0.47461 0.94726-0.15786 0.22102-0.31479 0.37029-0.47265 0.44922-0.14208 0.0947-0.31626 0.14258-0.52149 0.14258-0.14208 0-0.33156-0.01723-0.56836-0.04883-0.22101-0.0316-0.44874-0.0698-0.68554-0.11719v2.27344c0.25258 0.0789 0.48032 0.12483 0.68554 0.14063 0.20523 0.0316 0.40236 0.04882 0.5918 0.04882 0.97877 0.00001 1.7769-0.24498 2.39258-0.73437 0.63147-0.4736 1.07358-1.06694 1.32617-1.77734l5.61133-15.24805h-2.46289l-3.40821 10.08594-3.83789-10.08594h-2.67578zm146.39063 0v12.38281h2.60547v-12.38281h-2.60547zm56.4707 0v12.38281h2.60547v-12.38281h-2.60547zm-85.86914 1.70312c0.48939 0 0.95447 0.0881 1.39648 0.26172 0.44205 0.17366 0.82864 0.41864 1.16016 0.73438 0.33152 0.29994 0.59946 0.6693 0.80469 1.11133 0.22104 0.44202 0.35501 0.92435 0.40234 1.44531h-7.48242c0.0474-0.52096 0.17368-1.00329 0.37891-1.44531 0.20522-0.44203 0.47316-0.81139 0.80468-1.11133 0.33152-0.31574 0.71048-0.56072 1.13672-0.73438 0.44203-0.17365 0.90905-0.26172 1.39844-0.26172zm63.13086 0c0.48939 0 0.95446 0.0881 1.39648 0.26172 0.44203 0.17366 0.82864 0.41864 1.16016 0.73438 0.33152 0.29994 0.59946 0.6693 0.80469 1.11133 0.22104 0.44202 0.35698 0.92435 0.40429 1.44531h-7.48437c0.0474-0.52096 0.17368-1.00329 0.37891-1.44531 0.20522-0.44203 0.47512-0.81139 0.80664-1.11133 0.33152-0.31574 0.70852-0.56072 1.13476-0.73438 0.44203-0.17365 0.90905-0.26172 1.39844-0.26172zm48.97852 0c0.48938 0 0.95445 0.0881 1.39648 0.26172 0.44203 0.17366 0.82864 0.41864 1.16016 0.73438 0.33152 0.29994 0.60141 0.6693 0.80664 1.11133 0.22104 0.44202 0.35501 0.92435 0.40234 1.44531h-7.48437c0.0474-0.52096 0.17368-1.00329 0.3789-1.44531 0.20523-0.44203 0.47512-0.81139 0.80664-1.11133 0.33152-0.31574 0.71048-0.56072 1.13672-0.73438 0.44203-0.17365 0.9071-0.26172 1.39649-0.26172zm-257.66016 0.3086c0.36309 0 0.72675 0.0708 1.08984 0.21289 0.3631 0.12629 0.70185 0.30812 1.01758 0.54492 0.33152 0.2368 0.62437 0.522 0.87695 0.85352 0.25259 0.31573 0.45737 0.66978 0.61524 1.06445v3.24414c-0.0947 0.33152-0.2536 0.64732-0.47461 0.94727-0.22101 0.28416-0.48895 0.54445-0.80469 0.78125-0.29994 0.22101-0.63105 0.40284-0.99414 0.54492-0.36309 0.12629-0.74205 0.18945-1.13672 0.18945-0.55253 0-1.06546-0.11102-1.53906-0.33203-0.45781-0.22101-0.85972-0.51191-1.20703-0.875-0.34731-0.37888-0.62485-0.81335-0.83008-1.30274-0.18944-0.50517-0.2832-1.043-0.2832-1.61132 0-0.53675 0.0861-1.05733 0.25976-1.5625 0.17366-0.50518 0.41864-0.95495 0.73438-1.34961 0.31573-0.41046 0.69469-0.73391 1.13672-0.97071 0.45781-0.25258 0.97074-0.3789 1.53906-0.3789zm71.27148 0c0.52096 0 1.00329 0.11102 1.44532 0.33203 0.45781 0.20523 0.85207 0.49612 1.18359 0.875s0.59181 0.82865 0.78125 1.34961c0.18944 0.50517 0.2832 1.05066 0.2832 1.63476 0 0.5999-0.0938 1.15303-0.2832 1.65821-0.18944 0.50517-0.44973 0.94729-0.78125 1.32617s-0.72578 0.67742-1.18359 0.89844c-0.44203 0.20522-0.92436 0.30859-1.44532 0.30859s-1.01093-0.10337-1.46875-0.30859c-0.44202-0.22102-0.82863-0.51191-1.16015-0.875-0.33152-0.37888-0.59181-0.82098-0.78125-1.32618-0.18944-0.50517-0.28321-1.0583-0.28321-1.6582 0-0.5841 0.0938-1.12764 0.28321-1.63281 0.20522-0.52096 0.47315-0.97073 0.80469-1.34961 0.3315-0.37888 0.71812-0.67938 1.16015-0.90039 0.45781-0.22101 0.94014-0.33203 1.44531-0.33203zm34.83985 0c0.53674 0 1.02672 0.11867 1.46875 0.35547 0.45781 0.2368 0.84442 0.5526 1.16015 0.94726 0.33152 0.37888 0.58416 0.82865 0.75782 1.34961 0.18944 0.50518 0.28515 1.03341 0.28515 1.58594s-0.0957 1.08272-0.28515 1.58789c-0.18944 0.48939-0.45738 0.9219-0.80469 1.30078-0.33152 0.37888-0.73343 0.68703-1.20703 0.92383-0.4736 0.22101-0.99614 0.33203-1.56446 0.33203-0.33152 0-0.67792-0.05551-1.04101-0.16601-0.36309-0.12631-0.70185-0.30048-1.01758-0.52149s-0.59328-0.47365-0.83008-0.75781c-0.2368-0.29995-0.40137-0.63105-0.49609-0.99414v-3.26758c0.33152-0.74197 0.80424-1.37357 1.41992-1.89453 0.63147-0.52096 1.34918-0.78125 2.1543-0.78125zm53.42578 0c0.37888 0 0.75019 0.0632 1.11328 0.18945 0.37888 0.12629 0.73489 0.30812 1.06641 0.54492s0.62241 0.52005 0.875 0.85157c0.26837 0.33152 0.4751 0.69517 0.61718 1.08984v3.24414c-0.0947 0.34731-0.26124 0.67076-0.49804 0.9707-0.22102 0.29995-0.48896 0.56024-0.80469 0.78125-0.31573 0.22102-0.66409 0.39519-1.04297 0.52149-0.37888 0.12629-0.75784 0.18945-1.13672 0.18945-0.52096 0-1.00898-0.11102-1.4668-0.33203-0.442-0.22101-0.83824-0.51956-1.18554-0.89844-0.34731-0.37888-0.6229-0.821-0.82813-1.32617-0.18944-0.50517-0.2832-1.04301-0.2832-1.61133 0-0.53674 0.0861-1.05732 0.25977-1.5625 0.18944-0.50517 0.44207-0.95494 0.75781-1.34961 0.31573-0.39466 0.68704-0.71046 1.11328-0.94726 0.44203-0.2368 0.9224-0.35547 1.44336-0.35547zm83.18359 0c0.3631 0 0.7248 0.0708 1.08789 0.21289 0.3631 0.12629 0.7038 0.30812 1.01953 0.54492 0.33152 0.2368 0.62242 0.522 0.875 0.85352 0.25259 0.31573 0.45933 0.66978 0.61719 1.06445v3.24414c-0.0947 0.33152-0.25359 0.64732-0.47461 0.94727-0.22101 0.28416-0.48896 0.54445-0.80468 0.78125-0.29995 0.22101-0.63105 0.40284-0.99415 0.54492-0.36309 0.12629-0.74205 0.18945-1.13671 0.18945-0.55254 0-1.06547-0.11102-1.53907-0.33203-0.45781-0.22101-0.86167-0.51191-1.20898-0.875-0.34731-0.37888-0.6229-0.81335-0.82813-1.30274-0.18944-0.50517-0.28515-1.043-0.28515-1.61132 0-0.53675 0.0881-1.05733 0.26172-1.5625 0.17365-0.50518 0.41864-0.95495 0.73437-1.34961 0.31573-0.41046 0.69469-0.73391 1.13672-0.97071 0.45781-0.25258 0.97074-0.3789 1.53906-0.3789zm71.32617 0c0.55254 0 1.06547 0.11102 1.53907 0.33203s0.87746 0.52151 1.20898 0.90039c0.34731 0.37888 0.61525 0.81905 0.80469 1.32422 0.20523 0.50517 0.30859 1.04301 0.30859 1.61133 0 0.53674-0.0881 1.05732-0.26172 1.5625-0.17365 0.50517-0.42629 0.95494-0.75781 1.34961-0.31573 0.39466-0.70235 0.71046-1.16015 0.94726-0.44205 0.2368-0.93966 0.35547-1.49219 0.35547-0.37888 0-0.74824-0.0708-1.11133-0.21289-0.36309-0.14208-0.7038-0.33156-1.01953-0.56836-0.29995-0.2368-0.57554-0.52199-0.82813-0.85352-0.25258-0.3315-0.45736-0.68557-0.61523-1.06445v-3.24414c0.0947-0.34731 0.25929-0.6631 0.49609-0.94726 0.2368-0.29995 0.51435-0.56024 0.83008-0.78125 0.31573-0.22102 0.65449-0.3952 1.01758-0.52149s0.70949-0.18945 1.04101-0.18945zm14.89258 0c0.55254 0 1.06545 0.11102 1.53907 0.33203 0.47357 0.22101 0.87746 0.52151 1.20898 0.90039 0.34731 0.37888 0.61525 0.81905 0.80469 1.32422 0.20522 0.50517 0.30859 1.04301 0.30859 1.61133 0 0.53674-0.0881 1.05732-0.26172 1.5625-0.17365 0.50517-0.42629 0.95494-0.75781 1.34961-0.31573 0.39466-0.70234 0.71046-1.16016 0.94726-0.44202 0.2368-0.93965 0.35547-1.49218 0.35547-0.37888 0-0.74824-0.0708-1.11133-0.21289-0.3631-0.14208-0.7038-0.33156-1.01953-0.56836-0.29995-0.2368-0.57554-0.52199-0.82813-0.85352-0.25259-0.3315-0.45737-0.68557-0.61523-1.06445v-3.24414c0.0947-0.34731 0.25929-0.6631 0.49609-0.94726 0.2368-0.29995 0.51435-0.56024 0.83008-0.78125 0.31573-0.22102 0.65448-0.3952 1.01758-0.52149 0.36309-0.12629 0.70949-0.18945 1.04101-0.18945zm-376.01758 4.31054c0.4736 0 0.95398 0.0459 1.44336 0.14063 0.50518 0.0947 0.97985 0.23064 1.42188 0.4043v1.63281c0 0.31573-0.16653 0.61623-0.49805 0.90039-0.31573 0.41045-0.75785 0.7339-1.32617 0.9707-0.55253 0.22102-1.14392 0.33203-1.77539 0.33203-0.7104 0-1.29414-0.20673-1.75195-0.61718-0.45782-0.42624-0.6875-0.94682-0.6875-1.5625 0-0.66304 0.29284-1.19127 0.87695-1.58594 0.59989-0.41045 1.36546-0.61523 2.29687-0.61524zm166.63868 0c0.4736 0 0.95397 0.0459 1.44336 0.14063 0.50517 0.0947 0.97984 0.23064 1.42187 0.4043v1.63281c0 0.31573-0.16653 0.61623-0.49805 0.90039-0.31573 0.41045-0.75785 0.7339-1.32617 0.9707-0.55253 0.22102-1.14392 0.33203-1.77539 0.33203-0.7104 0-1.29414-0.20673-1.75195-0.61718-0.45782-0.42624-0.6875-0.94682-0.6875-1.5625 0-0.66304 0.29284-1.19127 0.87695-1.58594 0.59989-0.41045 1.36546-0.61523 2.29688-0.61524zm179.86523 0c0.4736 0 0.95593 0.0459 1.44531 0.14063 0.50518 0.0947 0.97789 0.23064 1.41993 0.4043v1.63281c-0.00001 0.31573-0.16458 0.61623-0.4961 0.90039-0.31573 0.41045-0.75785 0.7339-1.32617 0.9707-0.55253 0.22102-1.14588 0.33203-1.77734 0.33203-0.7104 0-1.29414-0.20673-1.75196-0.61718-0.45781-0.42624-0.68554-0.94682-0.68554-1.5625 0-0.66304 0.29089-1.19127 0.875-1.58594 0.59989-0.41045 1.36546-0.61523 2.29687-0.61524zm50.04492 3.03126v3.02929h2.1543v-3.02929h-2.1543z"
     fill="#434647" /></svg>